<?xml version="1.0" encoding="utf-8"?>
<!-- Generator: Adobe Illustrator 21.0.0, SVG Export Plug-In . SVG Version: 6.00 Build 0)  -->
<svg version="1.1" xmlns="http://www.w3.org/2000/svg" xmlns:xlink="http://www.w3.org/1999/xlink" x="0px" y="0px"
	 viewBox="0 0 24 24" style="enable-background:new 0 0 24 24;" xml:space="preserve">
<style type="text/css">
	.st0{fill:#FFFFFF;}
</style>
<g id="Layer_1">
	<g>
		<g>
			<path class="st0" d="M18.7,8.2C18.7,8.1,18.5,8,18.4,8h-4.7l4.7-7.4c0.1-0.1,0.1-0.3,0-0.4C18.3,0.1,18.1,0,18,0h-6.4
				c-0.2,0-0.3,0.1-0.4,0.2l-6,12c-0.1,0.1-0.1,0.3,0,0.4c0.1,0.1,0.2,0.2,0.3,0.2h4.1L5.2,23.4c-0.1,0.2,0,0.4,0.2,0.5
				C5.5,24,5.5,24,5.6,24c0.1,0,0.2,0,0.3-0.1L18.7,8.7C18.8,8.5,18.8,8.4,18.7,8.2z"/>
		</g>
	</g>
</g>
<g id="Layer_2">
</g>
</svg>
