<?xml version="1.0" standalone="no"?>
<!DOCTYPE svg PUBLIC "-//W3C//DTD SVG 1.1//EN" "http://www.w3.org/Graphics/SVG/1.1/DTD/svg11.dtd" >
<svg xmlns="http://www.w3.org/2000/svg">
<metadata></metadata>
<defs>
<font id="sequiregular" horiz-adv-x="972" >
<font-face units-per-em="2048" ascent="1536" descent="-512" />
<missing-glyph horiz-adv-x="716" />
<glyph horiz-adv-x="2048" />
<glyph horiz-adv-x="2048" />
<glyph unicode="&#xd;" horiz-adv-x="2048" />
<glyph unicode=" "  horiz-adv-x="716" />
<glyph unicode="&#x09;" horiz-adv-x="716" />
<glyph unicode="&#xa0;" horiz-adv-x="716" />
<glyph unicode="!" horiz-adv-x="272" d="M0 59q0 13 2 19q6 12 8 14q6 11 27 23q12 4 22 4q3 0 9.5 -1t9.5 -1q12 -6 14 -8q16 -10 23 -27q4 -12 4 -23q0 -12 -2 -18q-6 -12 -8 -14q-11 -17 -27 -23q-12 -4 -23 -4q-12 0 -18 2q-12 6 -14 8q-14 8 -23 27q-4 12 -4 22zM29 225v1321q0 12 9 21.5t21 9.5t21.5 -9.5 t9.5 -21.5v-1321q0 -12 -9.5 -21t-21.5 -9t-21 9t-9 21z" />
<glyph unicode="&#x22;" horiz-adv-x="380" d="M0 1380v166q0 12 9.5 21.5t21.5 9.5t21 -9.5t9 -21.5v-166q0 -13 -9 -21.5t-21 -8.5t-21.5 8.5t-9.5 21.5zM166 1380v166q0 12 9.5 21.5t21.5 9.5t21 -9.5t9 -21.5v-166q0 -13 -9 -21.5t-21 -8.5t-21.5 8.5t-9.5 21.5z" />
<glyph unicode="#" horiz-adv-x="1366" d="M0 592q0 12 9.5 21.5t21.5 9.5h288l87 331h-375q-12 0 -21.5 9.5t-9.5 21.5t9.5 21.5t21.5 9.5h391l139 538q3 12 14 18.5t23 2.5q12 -3 19 -14t4 -23l-136 -522h330l141 538q3 12 14 18.5t23 2.5q12 -3 19 -14t4 -23l-137 -522h303q13 0 21.5 -9.5t8.5 -21.5t-8.5 -21.5 t-21.5 -9.5h-318l-88 -331h406q13 0 21.5 -9.5t8.5 -21.5q0 -14 -8.5 -22.5t-21.5 -8.5h-420l-141 -538q-3 -12 -14 -19t-23 -4q-12 5 -19 16t-4 23l137 522h-331l-140 -538q-3 -12 -15 -19t-24 -4q-12 4 -17.5 15.5t-2.5 23.5l135 522h-272q-12 0 -21.5 9t-9.5 22zM383 623 h330l88 331h-332z" />
<glyph unicode="$" horiz-adv-x="968" d="M-4 401q0 12 9.5 21.5t21.5 9.5t21 -9.5t9 -21.5q0 -84 43 -159q42 -76 113 -123q56 -34 109 -45q11 -3 40 -8v702l-49 12h-6q-71 18 -127 56q-57 36 -98 90q-86 109 -86 248q0 46 12 96q17 68 55 127q34 51 93 96q111 84 250 84q48 0 98 -12q139 -35 225 -144 q86 -110 86 -243q0 -12 -9.5 -21.5t-21.5 -9.5t-21 9t-9 22q0 81 -43 159q-40 73 -113 121q-43 30 -109 47q-25 8 -65 11v-699l80 -20q64 -14 127 -56q57 -36 98 -90q86 -109 86 -245q0 -50 -12 -99q-19 -72 -55 -125q-34 -51 -93 -96q-101 -78 -231 -84v-207 q0 -12 -9 -21.5t-22 -9.5q-12 0 -21.5 9.5t-9.5 21.5v209q-38 4 -55 8q-66 17 -127 56q-51 34 -98 88q-86 114 -86 245zM57 1174q0 -90 41 -164q38 -69 115 -123q53 -29 92 -41q4 0 6 -2l51 -13v682q-66 -9 -122 -38q-74 -41 -125 -113q-34 -56 -47 -107q-11 -53 -11 -81z M424 63q79 3 147 41q78 43 125 113q33 52 47 105q11 53 11 84q0 87 -41 161t-115 123q-54 33 -109 47l-65 17v-691z" />
<glyph unicode="%" d="M0 1364q0 66 37 119q35 53 92 78q43 16 84 16q63 0 119 -37q52 -36 76 -92q18 -40 18 -84q0 -63 -37 -119q-39 -56 -94 -76q-38 -18 -82 -18q-66 0 -119 37q-54 35 -78 94q-16 40 -16 82zM1.5 21q-3.5 12 2.5 24l758 1497q4 10 16.5 14.5t24.5 -0.5q11 -6 14.5 -18.5 t-2.5 -24.5l-758 -1497q-5 -11 -17 -14.5t-24 2.5q-11 5 -14.5 17zM61 1364q0 -20 7 -45q4 -16 20 -39q23 -36 66 -55q39 -13 59 -13q13 0 45 9q21 6 39 18q36 23 55 66q13 39 13 59q0 14 -9 45q-7 26 -18 39q-26 40 -68 55q-26 13 -57 13q-21 0 -45 -7q-30 -13 -39 -20 q-40 -26 -55 -66q-13 -29 -13 -59zM393 213q0 63 37 119q37 52 94 76q33 16 82 16q69 0 119 -35q54 -35 78 -94q16 -40 16 -82q0 -66 -37 -119q-35 -53 -92 -78q-43 -16 -84 -16q-67 0 -119 37q-55 38 -75 92q-19 43 -19 84zM455 213q0 -17 8 -45q7 -25 18 -41 q27 -38 66 -53q29 -13 59 -13q20 0 45 7q22 6 39 20q39 22 55 66q13 29 13 59q0 24 -6 45q-9 21 -21 39q-23 36 -65 55q-30 10 -60 10q-24 0 -45 -6t-39 -18q-37 -23 -55 -68q-12 -32 -12 -57z" />
<glyph unicode="'" horiz-adv-x="215" d="M0 1380v166q0 12 9.5 21.5t21.5 9.5t21 -9.5t9 -21.5v-166q0 -13 -9 -21.5t-21 -8.5t-21.5 8.5t-9.5 21.5z" />
<glyph unicode="(" horiz-adv-x="579" d="M0 670q0 151 45 323q45 175 125 326q56 105 121 176q47 50 84 76q11 7 23 5t20 -11q7 -11 5 -23t-11 -20q-59 -44 -109 -109q-45 -57 -94 -151q-84 -170 -123 -361q-25 -125 -25 -231q0 -146 43 -308q45 -169 119 -311q59 -102 115 -164q38 -41 74 -67q23 -17 8 -43 q-7 -10 -20.5 -12t-22.5 6q-62 43 -123 120q-47 60 -98 160q-85 169 -129 375q-27 145 -27 244z" />
<glyph unicode=")" horiz-adv-x="577" d="M1 -200q2 12 11 20q61 45 109 108q40 52 94 150q83 168 123 360q24 123 24 232q0 148 -40 309q-46 173 -121 311q-53 98 -113 164q-41 44 -74 68q-10 7 -12 20t6 23q6 9 19 11t24 -5q65 -50 121 -121q47 -60 98 -160q86 -170 129 -377q25 -131 25 -243q0 -156 -43 -324 q-52 -189 -127 -323q-57 -107 -121 -177q-44 -48 -84 -75q-10 -8 -23 -6t-20 12q-7 11 -5 23z" />
<glyph unicode="*" horiz-adv-x="952" d="M0 1182q0 20 20 20h293l-207 207q-6 6 -6 15.5t6 13.5q14 14 29 0l227 -228v336q0 8 7 14.5t14 6.5q9 0 14.5 -6.5t5.5 -14.5v-323l238 237q15 14 29 0t0 -28l-228 -230h336q8 0 14.5 -5.5t6.5 -14.5q0 -8 -6.5 -14.5t-14.5 -6.5h-366l258 -258q14 -15 0 -29 q-4 -6 -13.5 -6t-15.5 6l-238 238v-324q0 -20 -20 -20q-8 0 -14.5 5.5t-6.5 14.5v336l-227 -229q-15 -11 -29 0q-6 6 -6 15.5t6 15.5l238 235h-324q-9 0 -14.5 6.5t-5.5 14.5z" />
<glyph unicode="+" d="M0 788q0 12 9.5 21.5t21.5 9.5h331v363q0 13 9.5 21.5t21.5 8.5q14 0 22.5 -8.5t8.5 -21.5v-363h364q12 0 21.5 -9.5t9.5 -21.5t-9.5 -21t-21.5 -9h-364v-365q0 -12 -9 -21.5t-22 -9.5q-12 0 -21.5 9.5t-9.5 21.5v365h-331q-12 0 -21.5 9t-9.5 21z" />
<glyph unicode="," horiz-adv-x="385" d="M4 -193l166 402q13 26 41 16q12 -4 16.5 -16.5t-0.5 -24.5l-166 -401q-5 -11 -17 -15.5t-24 -0.5q-11 5 -15.5 16.5t-0.5 23.5z" />
<glyph unicode="-" horiz-adv-x="577" d="M0 788q0 12 9.5 21.5t21.5 9.5h362q13 0 22 -9.5t9 -21.5t-9 -21t-22 -9h-362q-12 0 -21.5 9t-9.5 21z" />
<glyph unicode="." horiz-adv-x="272" d="M0 59q0 13 2 19q6 12 8 14q6 11 27 23q12 4 22 4q3 0 9.5 -1t9.5 -1q12 -6 14 -8q16 -10 23 -27q4 -12 4 -23q0 -12 -2 -18q-6 -12 -8 -14q-11 -17 -27 -23q-12 -4 -23 -4q-12 0 -18 2q-12 6 -14 8q-14 8 -23 27q-4 12 -4 22z" />
<glyph unicode="/" horiz-adv-x="581" d="M2 37l365 1515q3 13 13.5 20t22.5 5q12 -3 19 -14.5t4 -24.5l-363 -1515q-3 -12 -13.5 -19t-22.5 -4q-13 3 -20.5 14t-4.5 23z" />
<glyph unicode="0" d="M0 393v17v4v760q0 62 18 118q13 43 52 107q71 99 180 145q81 33 160 33q126 0 229 -70q100 -65 147 -178q33 -78 33 -155v-764q0 -124 -69 -230q-68 -100 -181 -147q-81 -33 -159 -33q-123 0 -230 70q-100 68 -147 180q-30 76 -33 143zM61 471l697 723q-2 34 -17 80 q-14 47 -43 90q-56 84 -153 125q-69 27 -135 27q-106 0 -195 -60q-87 -58 -127 -149q-27 -69 -27 -133v-703zM63 383q6 -91 58 -168q58 -86 153 -127q69 -27 136 -27q105 0 194 60q86 58 127 153q27 69 27 136v696z" />
<glyph unicode="1" horiz-adv-x="577" d="M0 1182.5q0 12.5 8 21.5l365 365q14 14 33 6q18 -9 18 -29v-1515q0 -12 -9 -21.5t-22 -9.5q-12 0 -21.5 9.5t-9.5 21.5v1442l-309 -312q-9 -9 -22.5 -9t-22.5 9q-8 9 -8 21.5z" />
<glyph unicode="2" d="M0 1167q0 123 70 230q68 100 180 147q81 33 160 33q122 0 229 -70q100 -68 147 -180q33 -81 33 -160q0 -104 -49 -194l-332 -912h350q12 0 21.5 -9t9.5 -21t-9.5 -21.5t-21.5 -9.5h-395q-15 0 -24 12q-8 10 -4 29l292 799q-64 -40 -88 -49q-81 -33 -159 -33 q-124 0 -230 69q-100 68 -147 181q-33 81 -33 159zM61 1167q0 -105 60 -194q58 -86 153 -127q69 -27 136 -27q105 0 194 60q86 58 127 153q27 69 27 135q0 106 -60 195q-58 86 -153 127q-69 27 -135 27q-106 0 -195 -60q-86 -58 -127 -153q-27 -69 -27 -136z" />
<glyph unicode="3" horiz-adv-x="1169" d="M0 508q0 84 27 160q26 79 69 139q8 9 21 11t22 -5q23 -17 8 -43q-43 -58 -63 -121q-23 -74 -23 -141q0 -134 76 -250q73 -108 197 -162q81 -35 174 -35q134 0 250 76q112 76 162 197q34 78 34 174q0 135 -75 250q-73 108 -197 162q-78 34 -174 34h-6l-2 2h-2h-2l-2 2 q-2 0 -2 3h-3q0 2 -2 2q0 2 -2 2l-477 561q-13 16 -6 33q9 18 29 18h477q10 0 22 -8q9 -9 9 -23v-530q137 -9 254 -86q124 -86 184 -223q39 -95 39 -199q0 -157 -86 -285q-86 -124 -223 -184q-95 -39 -199 -39q-152 0 -285 86q-126 87 -182 223q-41 93 -41 199zM96 1516 l381 -447v447h-381z" />
<glyph unicode="4" d="M2 776q-6 19 6 35l758 758q16 12 35 6q18 -11 18 -29v-561v-197v-757q0 -12 -9.5 -21.5t-21.5 -9.5t-21 9.5t-9 21.5v727h-727q-22 0 -29 18zM104 819h654v166v488z" />
<glyph unicode="5" horiz-adv-x="1171" d="M0 508q0 84 27 160q26 79 69 139q8 9 21 11t22 -5q23 -17 8 -43q-43 -58 -63 -121q-23 -74 -23 -141q0 -134 76 -250q73 -108 197 -162q81 -35 174 -35q134 0 250 76q112 76 162 197q34 78 34 174q0 135 -75 250q-73 108 -197 162q-78 34 -174 34h-2h-2h-2v2h-2h-2h-2 q0 2 -2 2t-2 3h-3q0 2 -2 2l-2 2q-2 2 -2 4l-2 2q0 2 -2 2v4q0 2 -2 2v2v2v2v561q0 13 10 23q8 8 21 8h477q20 0 29 -18q6 -16 -4 -33l-439 -514q118 -14 222 -82q124 -86 184 -223q39 -95 39 -199q0 -157 -86 -285q-86 -124 -223 -184q-95 -39 -199 -39q-152 0 -285 86 q-126 87 -182 223q-41 93 -41 199zM539 1069l381 447h-381v-447z" />
<glyph unicode="6" horiz-adv-x="1169" d="M0 508q0 152 86 285q43 59 90 98l590 676q8 9 21 10t22 -8q9 -8 10 -21t-8 -22l-471 -539q85 29 168 29q152 0 285 -86q124 -86 184 -223q39 -95 39 -199q0 -157 -86 -285q-86 -124 -223 -184q-95 -39 -199 -39q-152 0 -285 86q-126 87 -182 223q-41 93 -41 199zM61 508 q0 -134 76 -250q73 -108 197 -162q81 -35 174 -35q134 0 250 76q112 76 162 197q34 78 34 174q0 135 -75 250q-73 108 -197 162q-78 34 -174 34q-135 0 -250 -75q-108 -73 -162 -197q-35 -81 -35 -174z" />
<glyph unicode="7" horiz-adv-x="974" d="M2 985q0 23 23 31l677 176l-682 326q-12 6 -16.5 18.5t0.5 22.5q6 12 18.5 16t24.5 -2l756 -363q18 -9 18 -30q-3 -21 -22 -27l-643 -168l643 -168q9 -2 15.5 -10.5t6.5 -18.5v-757q0 -12 -9 -21.5t-21 -9.5t-21.5 9.5t-9.5 21.5v733l-735 192q-9 2 -16 10.5t-7 18.5z " />
<glyph unicode="8" horiz-adv-x="1169" d="M0 508q0 152 86 285q49 68 107 112q-43 54 -62 103q-33 81 -33 159q0 123 70 230q68 100 180 147q81 33 160 33q122 0 229 -70q102 -69 148 -180q33 -70 33 -160q0 -126 -70 -229q-4 -5 -12.5 -16.5t-12.5 -16.5q98 -74 154 -198q39 -95 39 -199q0 -157 -86 -285 q-86 -124 -223 -184q-95 -39 -199 -39q-152 0 -285 86q-126 87 -182 223q-41 93 -41 199zM61 508q0 -134 76 -250q73 -108 197 -162q81 -35 174 -35q134 0 250 76q112 76 162 197q34 78 34 174q0 135 -75 250q-39 56 -99 104q-50 -47 -112 -71q-81 -33 -160 -33 q-123 0 -229 69q-13 9 -43 35q-94 -72 -140 -180q-35 -81 -35 -174zM160 1167q0 -106 59 -194q4 -5 12.5 -15.5t12.5 -15.5q41 25 67 35q92 39 197 39q143 0 266 -74q34 39 55 90q27 69 27 135q0 107 -59 195q-58 86 -154 127q-69 27 -135 27q-106 0 -195 -60 q-86 -58 -127 -153q-26 -67 -26 -136zM289 897q37 -30 84 -51q69 -27 135 -27q105 0 194 60q4 3 12.5 9t12.5 9q-31 18 -45 23q-78 34 -174 34q-117 0 -219 -57z" />
<glyph unicode="9" d="M0 1167q0 123 70 230q68 100 180 147q81 33 160 33q122 0 229 -70q100 -68 147 -180q33 -81 33 -160q0 -104 -49 -194l-346 -953q-4 -12 -16.5 -17.5t-24.5 -0.5q-11 5 -16 16t-2 23l292 799q-64 -40 -88 -49q-81 -33 -159 -33q-124 0 -230 69q-100 68 -147 181 q-33 81 -33 159zM61 1167q0 -105 60 -194q58 -86 153 -127q69 -27 136 -27q105 0 194 60q86 58 127 153q27 69 27 135q0 106 -60 195q-58 86 -153 127q-69 27 -135 27q-106 0 -195 -60q-86 -58 -127 -153q-27 -69 -27 -136z" />
<glyph unicode=":" horiz-adv-x="272" d="M0 59q0 13 2 19q6 12 8 14q6 11 27 23q12 4 22 4q3 0 9.5 -1t9.5 -1q12 -6 14 -8q16 -10 23 -27q4 -12 4 -23q0 -12 -2 -18q-6 -12 -8 -14q-11 -17 -27 -23q-12 -4 -23 -4q-12 0 -18 2q-12 6 -14 8q-14 8 -23 27q-4 12 -4 22zM0 819q0 13 2 19q6 12 8 14q5 9 27 22 q15 5 22 5q3 0 9.5 -1t9.5 -1q10 -5 14 -9q17 -10 23 -26q4 -12 4 -23q0 -12 -2 -18q-7 -14 -8 -15q-10 -16 -27 -22q-12 -4 -23 -4q-12 0 -18 2q-12 6 -14 8q-14 8 -23 27q-4 12 -4 22z" />
<glyph unicode=";" horiz-adv-x="411" d="M4 -193l166 402q13 26 41 16q12 -4 16.5 -16.5t-0.5 -24.5l-166 -401q-5 -11 -17 -15.5t-24 -0.5q-11 5 -15.5 16.5t-0.5 23.5zM139 788q0 7 4 19l7 14q7 12 26 23q12 4 23 4q3 0 9 -1t9 -1q9 -3 14 -8q16 -10 23 -27q4 -12 4 -23q0 -12 -2 -18q-6 -12 -8 -14 q-10 -17 -27 -23q-12 -4 -22 -4q-13 0 -17 2q-12 4 -16 8q-14 8 -23 27q-4 12 -4 22z" />
<glyph unicode="&#x3c;" d="M0 788q0 21 16 27l758 395q10 6 22.5 2t18.5 -16q6 -11 2.5 -23t-14.5 -18l-705 -367l705 -366q11 -6 14.5 -18t-2.5 -23q-6 -12 -18.5 -16t-22.5 2l-758 395q-16 6 -16 26z" />
<glyph unicode="=" d="M0 592q0 12 9.5 21.5t21.5 9.5h757q12 0 21.5 -9.5t9.5 -21.5q0 -13 -9.5 -22t-21.5 -9h-757q-12 0 -21.5 9t-9.5 22zM0 985q0 12 9.5 21.5t21.5 9.5h757q12 0 21.5 -9.5t9.5 -21.5t-9.5 -21.5t-21.5 -9.5h-757q-12 0 -21.5 9.5t-9.5 21.5z" />
<glyph unicode="&#x3e;" d="M1.5 404q3.5 12 14.5 18l705 366l-705 367q-11 6 -14.5 18t2.5 23q6 12 18.5 16t22.5 -2l758 -395q16 -6 16 -27q0 -20 -16 -26l-758 -395q-10 -6 -22.5 -2t-18.5 16q-6 11 -2.5 23z" />
<glyph unicode="?" d="M0 1178q0 133 86 243q86 109 225 144q49 12 99 12q106 0 194 -49q88 -46 148 -131q38 -59 55 -127q12 -50 12 -96q0 -103 -49 -193q-53 -92 -135 -145q-56 -37 -121 -54q-2 0 -4 -2l-148 -35q-36 -10 -79 -34q-39 -25 -62 -58q-53 -65 -53 -153q0 -32 6 -62 q11 -41 37 -78q13 -23 55 -61q72 -53 158 -53q23 0 63 8q44 12 80 35q31 19 60 55q55 68 55 154q0 12 9.5 20t21.5 8t21 -9t9 -21q0 -80 -38 -148q-35 -63 -105 -110q-45 -31 -98 -43q-50 -11 -78 -11q-80 0 -150 39q-69 37 -114 103q-30 44 -45 98q-9 38 -9 76q0 82 37 149 q43 72 107 113q54 33 98 43l141 35q3 0 5 2q51 10 108 45q48 34 84 78q72 91 72 209q0 33 -10 81q-12 48 -48 107q-41 55 -77 82q-94 72 -213 72q-31 0 -84 -11q-66 -17 -109 -47q-48 -31 -82 -74q-74 -93 -74 -206q0 -13 -9 -22t-21 -9t-21.5 9.5t-9.5 21.5zM338 31 q0 6 4 18q1 2 3 7t3 7q10 13 27 23q16 4 22 4q3 0 9.5 -1t9.5 -1q8 -3 16 -8q15 -11 21 -27q4 -6 4 -22q0 -13 -2 -19q-5 -10 -9 -14q-11 -18 -24 -23q-16 -4 -25 -4q-10 0 -16 2q-5 2 -16 9q-16 12 -21 26q-6 9 -6 23z" />
<glyph unicode="@" horiz-adv-x="1601" d="M0 489q0 221 123 406q121 179 319 262q132 57 281 57q222 0 405 -124q183 -122 263 -320q57 -132 57 -281q0 -158 -68 -307q-66 -141 -182 -239v-2h-2v-2h-2h-2v-2h-2q-2 0 -2 -3h-2h-2h-2h-2h-2h-2h-2h-3q-2 1 -2 3h-2h-2l-2 2h-2v2h-2v2h-2q0 2 -2 2v2q-2 0 -2 2l-2 2 l-274 547l-547 -365q-19 -13 -37 2q-18 18 -8 37l383 766q9 18 28 18q21 0 27 -16l465 -926q88 88 137 195q61 135 61 280q0 206 -112 371q-117 169 -293 240q-125 53 -258 53q-202 0 -371 -115q-163 -113 -239 -290q-52 -126 -52 -259q0 -207 113 -370q112 -165 291 -242 q124 -51 258 -51q13 0 22 -9.5t9 -21.5t-9 -21.5t-22 -9.5q-223 0 -404 123q-180 120 -264 320q-55 128 -55 282zM391 248l457 305l-152 303z" />
<glyph unicode="A" horiz-adv-x="1732" d="M2 25v5q0 8 4 15l758 1516q6 16 27 16q20 0 26 -16l758 -1516q4 -8 4 -15q1 -4 -1 -9q-4 -12 -15 -17q-8 -4 -15 -4l-9 2q-12 4 -17 14l-365 727l-1108 -739q-9 -5 -17 -5q-11 0 -20 9q-8 6 -10 17zM113 121l1017 678l-339 678z" />
<glyph unicode="B" horiz-adv-x="1366" d="M0 606v182v379q0 123 70 230q68 100 180 147q81 33 160 33q122 0 229 -70q100 -68 147 -180q30 -70 33 -151q128 -47 224 -147t139 -230q30 -92 30 -193q0 -190 -102 -338q-101 -150 -266 -221q-112 -47 -238 -47q-187 0 -338 104q-149 100 -221 267q-47 109 -47 235z M61 606q0 -161 93 -305q93 -135 241 -197q93 -43 211 -43q165 0 305 93q132 89 199 241q41 96 41 211q0 92 -27 172q-28 85 -77 152q-91 123 -232 180q-11 -89 -65 -172q-68 -100 -181 -147q-81 -33 -159 -33h-349v-152zM61 819h349q105 0 194 60q86 58 127 153 q24 64 27 121v14q0 106 -60 195q-58 86 -153 127q-69 27 -135 27q-106 0 -195 -60q-86 -58 -127 -153q-27 -69 -27 -136v-348z" />
<glyph unicode="C" horiz-adv-x="1368" d="M0 788q0 245 135 441q127 192 346 287q147 61 307 61q220 0 410 -115q11 -6 14 -19q1 -4 1 -8q0 -9 -5 -16q-6 -10 -18.5 -13t-22.5 3q-175 107 -379 107q-225 0 -405 -125q-180 -120 -264 -320q-58 -135 -58 -283q0 -224 125 -407q121 -178 320 -262q135 -58 282 -58 q204 0 379 107q10 6 22.5 3t18.5 -13q5 -8 5 -16q0 -4 -1 -8q-3 -13 -14 -19q-185 -115 -410 -115q-244 0 -440 135q-192 127 -287 346q-61 147 -61 307z" />
<glyph unicode="D" horiz-adv-x="1335" d="M0 31v1423q0 17 16 27q178 96 377 96q206 0 385 -100h2q21 -12 56 -35q194 -130 284 -346q62 -142 62 -308q0 -242 -133 -440q-133 -197 -349 -287q-147 -61 -307 -61q-16 0 -22 12q-9 10 -6 27l362 1395q-23 14 -49 24q-138 58 -285 58q-175 0 -332 -80v-1405 q0 -12 -9 -21.5t-21 -9.5t-21.5 9.5t-9.5 21.5zM434 61q200 12 367 125q180 120 264 320q55 135 55 282q0 225 -123 406q-89 131 -215 209z" />
<glyph unicode="E" horiz-adv-x="974" d="M25 424l643 168l-643 166q-23 8 -23 30q0 10 7 18.5t16 10.5l643 168l-643 168q-20 7 -23 27v5q0 16 18 25l756 363q7 4 15 4q5 0 9 -2q12 -4 17 -16q6 -10 2 -22.5t-16 -18.5l-682 -326l678 -176q22 -7 22 -31q0 -10 -6.5 -18.5t-15.5 -10.5l-643 -168l643 -167 q22 -7 22 -29q0 -24 -22 -31l-678 -176l682 -328q12 -4 16 -16.5t-2 -24.5q-5 -10 -17 -14q-6 -2 -11 -3q-6 0 -13 3l-756 365q-18 10 -18 25q0 24 23 32z" />
<glyph unicode="F" horiz-adv-x="974" d="M2 31v757q0 10 7 18.5t16 10.5l643 168l-643 168q-23 8 -23 32q0 16 18 25l756 363q7 4 15 4q5 0 9 -2q12 -4 17 -16q6 -10 2 -22.5t-16 -18.5l-682 -326l678 -176q22 -7 22 -31q0 -10 -6.5 -18.5t-15.5 -10.5l-736 -192v-733q0 -12 -9 -21.5t-21 -9.5t-21.5 9.5 t-9.5 21.5z" />
<glyph unicode="G" horiz-adv-x="1705" d="M0 788q0 245 135 441q127 192 346 287q147 61 307 61q220 0 410 -115q10 -6 13 -19.5t-3 -23.5t-18.5 -13t-22.5 3q-175 107 -379 107q-224 0 -407 -125q-178 -121 -262 -320q-52 -120 -58 -248l1455 193q26 3 34 -23q27 -111 27 -205q0 -244 -135 -440 q-130 -197 -346 -287q-147 -61 -308 -61q-244 0 -440 135q-197 130 -287 346q-61 147 -61 307zM61 762q9 -207 125 -381q121 -178 320 -262q135 -58 282 -58q226 0 406 125q180 120 264 320q58 135 58 282q0 80 -19 164z" />
<glyph unicode="H" horiz-adv-x="1366" d="M0 31v1515q0 22 20 29q6 2 12 2q13 0 23 -12l551 -725l553 725q8 12 21 12q5 0 12 -2q20 -7 20 -29v-1515q0 -22 -20 -29q-7 -2 -12 -2q-13 0 -21 12l-553 725l-551 -725q-10 -12 -23 -12q-6 0 -12 2q-20 7 -20 29zM61 121l506 667l-506 666v-1333zM645 788l506 -667 v1333z" />
<glyph unicode="I" horiz-adv-x="215" d="M0 31v1515q0 12 9.5 21.5t21.5 9.5t21 -9.5t9 -21.5v-1515q0 -12 -9 -21.5t-21 -9.5t-21.5 9.5t-9.5 21.5z" />
<glyph unicode="J" d="M0 23v2v2v4v2v2v2v2h2v2v2l2 2v2h2v2q2 2 2 4l750 748v745q0 12 9 21.5t21 9.5t21.5 -9.5t9.5 -21.5v-1515q0 -11 -8 -23q-12 -8 -23 -8h-757h-2h-2h-2h-2v2h-3h-2l-2 2h-2l-2 2q-4 4 -6 4v2v2h-2v2l-2 2v2v3h-2zM104 61h654v654z" />
<glyph unicode="K" horiz-adv-x="974" d="M0 31v757v758q0 12 9.5 21.5t21.5 9.5t21 -9.5t9 -21.5v-684l705 707q9 7 22.5 7t22.5 -7q7 -9 7 -22.5t-7 -22.5l-737 -736l737 -735q8 -11 8 -23q0 -6 -2 -12q-11 -18 -29 -18h-757q-11 0 -23 8q-8 12 -8 23zM61 61h654l-654 654v-654z" />
<glyph unicode="L" d="M0 31v1515q0 12 9.5 21.5t21.5 9.5t21 -9.5t9 -21.5v-745l750 -748q0 -2 2 -4v-2h2v-2l2 -2v-2v-2l2 -2v-2v-2v-2v-4v-2l-2 -2v-3v-2l-2 -2v-2h-2v-2v-2q-2 0 -6 -4l-2 -2h-2l-2 -2h-2h-2v-2h-2h-2h-2h-3h-757q-11 0 -23 8q-8 12 -8 23zM61 61h654l-654 654v-654z" />
<glyph unicode="M" horiz-adv-x="1734" d="M2 37l365 1515q2 11 10 18t18 7q23 0 31 -23l365 -1400l364 1400q8 23 31 23q21 0 28 -25l365 -1515q1 -4 1 -8q0 -10 -7 -17q-9 -12 -25 -12h-1515q-16 0 -25 12q-7 7 -7 17q0 4 1 8zM72 61h680l-355 1358zM829 61h680l-325 1358z" />
<glyph unicode="N" d="M0 31v1515q0 24 25 31q4 1 7 1q17 0 25 -17l701 -1401v1386q0 12 9 21.5t21 9.5t21.5 -9.5t9.5 -21.5v-1515v-2v-2v-2l-2 -2v-3v-2q-4 -4 -4 -8h-2v-2h-2v-2h-2h-2v-2h-2l-2 -2h-2q-2 0 -2 -2h-2h-2h-2h-3h-757q-11 0 -23 8q-8 12 -8 23zM61 61h678l-678 1354v-1354z" />
<glyph unicode="O" horiz-adv-x="1730" d="M0 788q0 245 135 441q127 192 346 287q147 61 307 61q245 0 441 -135q197 -130 287 -346q61 -147 61 -308q0 -244 -135 -440q-130 -197 -346 -287q-147 -61 -308 -61q-244 0 -440 135q-192 127 -287 346q-61 147 -61 307zM61 788q0 -224 125 -407q121 -178 320 -262 q135 -58 282 -58q226 0 406 125q180 120 264 320q58 135 58 282q0 226 -125 406q-120 180 -320 264q-135 58 -283 58q-225 0 -405 -125q-180 -120 -264 -320q-58 -135 -58 -283z" />
<glyph unicode="P" d="M0 31v1136q0 123 70 230q68 100 180 147q81 33 160 33q122 0 229 -70q100 -68 147 -180q33 -81 33 -160q0 -123 -69 -229q-68 -100 -181 -147q-81 -33 -159 -33h-349v-727q0 -12 -9 -21.5t-21 -9.5t-21.5 9.5t-9.5 21.5zM61 819h349q105 0 194 60q86 58 127 153 q27 69 27 135q0 106 -60 195q-58 86 -153 127q-69 27 -135 27q-106 0 -195 -60q-86 -58 -127 -153q-27 -69 -27 -136v-348z" />
<glyph unicode="Q" horiz-adv-x="1730" d="M0 788q0 245 135 441q127 192 346 287q147 61 307 61q130 0 261 -43q118 -42 223 -123q101 -79 173 -186t105 -232q3 -12 -3.5 -23t-18.5 -14l-680 -184l498 -498l223 -221q7 -9 7 -22.5t-7 -22.5q-9 -9 -22.5 -9t-22.5 9l-201 201q-99 -92 -227 -148q-147 -61 -308 -61 q-244 0 -440 135q-192 127 -287 346q-61 147 -61 307zM61 788q0 -224 125 -407q121 -178 320 -262q135 -58 282 -58q148 0 283 58q118 50 209 135l-514 512q-12 16 -6 31q3 17 20 20l703 191q-49 153 -162 276q-123 132 -293 191q-115 41 -240 41q-225 0 -405 -125 q-180 -120 -264 -320q-58 -135 -58 -283z" />
<glyph unicode="R" d="M0 31v757q0 11 8 23q12 8 23 8h194l-219 332q-6 6 -6 16q0 123 70 230q68 100 180 147q81 33 160 33q122 0 229 -70q100 -68 147 -180q33 -81 33 -160q0 -123 -69 -229q-68 -100 -181 -147q-81 -33 -159 -33h-70l473 -711q7 -11 5 -23t-13 -20q-7 -4 -15 -4q-4 0 -8 1 q-13 3 -20 13l-496 744h-205v-727q0 -12 -9 -21.5t-21 -9.5t-21.5 9.5t-9.5 21.5zM61 1176l238 -357h111q105 0 194 60q86 58 127 153q27 69 27 135q0 106 -60 195q-58 86 -153 127q-69 27 -135 27q-106 0 -195 -60q-86 -58 -127 -153q-24 -58 -27 -127z" />
<glyph unicode="S" d="M0 401q0 12 9.5 21.5t21.5 9.5t21 -9.5t9 -21.5q0 -84 43 -159q42 -76 113 -123q56 -34 109 -45q40 -11 84 -11q88 0 165 41q78 43 125 113q35 54 48 105q10 48 10 84q0 87 -41 161t-115 123q-55 33 -108 47l-177 43h-6q-71 18 -127 56q-57 36 -98 90q-86 109 -86 248 q0 46 12 96q17 66 56 127q35 52 92 96q111 84 250 84q48 0 98 -12q139 -35 225 -144q86 -110 86 -243q0 -12 -9.5 -21.5t-21.5 -9.5t-21 9t-9 22q0 81 -43 159q-40 73 -113 121q-44 31 -108 47q-53 11 -84 11q-89 0 -166 -41q-74 -41 -125 -113q-34 -56 -47 -107 q-11 -53 -11 -81q0 -90 41 -164q38 -69 115 -123q53 -29 92 -41q4 0 6 -2l193 -47q64 -14 127 -56q57 -36 98 -90q86 -109 86 -245q0 -50 -12 -99q-19 -72 -55 -125q-34 -51 -93 -96q-107 -84 -249 -84q-58 0 -99 10q-66 17 -127 56q-51 34 -98 88q-86 114 -86 245z" />
<glyph unicode="T" d="M0 1538v2v2v4v2v2v2v2h2v2v3l2 2v2h2v2l6 6h2v2h2l2 2h2h3l2 2h2h2h2h757q22 0 29 -21q3 -6 3 -12q0 -11 -11 -20l-385 -355v-1138q0 -12 -9 -21.5t-22 -9.5q-12 0 -21.5 9.5t-9.5 21.5v1138l-354 355q0 2 -2 2v2v2h-2v2l-2 2v2v2h-2zM104 1516l291 -291l316 291h-607z " />
<glyph unicode="U" d="M0 393v2v15v4v370v9v753q0 12 9.5 21.5t21.5 9.5t21 -9.5t9 -21.5v-684l705 707q11 8 23 8q6 0 12 -2q18 -11 18 -29v-1136q0 -124 -69 -230q-68 -100 -181 -147q-81 -33 -159 -33q-123 0 -230 70q-100 68 -147 180q-30 76 -33 143zM61 395q3 -97 60 -180 q58 -86 153 -127q69 -27 136 -27q105 0 194 60q86 58 127 153q27 69 27 136v1063l-697 -697v-381z" />
<glyph unicode="V" horiz-adv-x="1730" d="M2 1556q4 12 14 17q8 4 15 4l9 -1q12 -4 17 -15l365 -727l1108 737q6 6 17 6l1 -1q12 0 19 -7q7 -6 9 -17q1 -3 1 -6q0 -7 -4 -14l-758 -1516q-6 -16 -27 -16q-18 0 -28 16l-756 1516q-4 8 -4 15q1 5 2 9zM449 778l339 -680l678 1358z" />
<glyph unicode="W" horiz-adv-x="1734" d="M2 1538q-1 4 -1 8q0 8 5 16q7 12 21 15h5q10 0 18 -5q10 -7 13 -20l334 -1394l363 1384q7 25 31 25q10 0 18 -7t10 -18l365 -1384l334 1394q4 13 14 20q8 5 18 5h6q12 -3 19 -15q5 -8 5 -16q0 -4 -1 -8l-365 -1515q-8 -23 -28 -23q-24 0 -31 23l-364 1390l-365 -1390 q-7 -23 -31 -23q-10 0 -18 7t-10 16z" />
<glyph unicode="X" d="M2 1556q4 12 14 17q8 4 15 4l9 -1q12 -4 17 -15l349 -697l342 697q6 11 18 15q4 1 8 1q7 0 14 -4q12 -5 16.5 -17t-1.5 -24l-363 -737l375 -750q4 -7 4 -15t-4 -16q-11 -14 -27 -14h-757q-17 0 -27 14q-4 8 -4 16t4 15l369 750l-369 737q-4 8 -4 15q1 5 2 9zM80 61h659 l-333 664z" />
<glyph unicode="Y" horiz-adv-x="974" d="M4 1561q6 16 27 16h757q16 0 25 -12q6 -8 6 -17q0 -5 -2 -10l-393 -1515q-3 -12 -14 -19q-8 -5 -16 -5q-3 0 -7 1q-12 5 -18.5 16t-3.5 23l192 743l-551 746q-6 10 -6 19q0 7 4 14zM92 1516l486 -658l172 658h-658z" />
<glyph unicode="Z" d="M0 1546q0 12 9.5 21.5t21.5 9.5h757q16 0 27 -14q7 -19 0 -31l-735 -1471h708q12 0 21.5 -9t9.5 -21t-9.5 -21.5t-21.5 -9.5h-757q-17 0 -27 14q-4 8 -4 16t4 15l735 1471h-708q-12 0 -21.5 9t-9.5 21z" />
<glyph unicode="[" horiz-adv-x="227" d="M0 -205v1751q0 15 8 23q12 8 23 8h166q12 0 21 -9.5t9 -21.5t-9 -21t-21 -9h-136v-1690h136q12 0 21 -9.5t9 -21.5t-9 -21.5t-21 -9.5h-166q-14 0 -23 9q-8 8 -8 22z" />
<glyph unicode="\" horiz-adv-x="581" d="M2 1538q-3 13 4 24.5t21 14.5q12 2 22.5 -5t13.5 -20l363 -1515q3 -12 -4 -23t-19 -14t-22.5 4t-13.5 19z" />
<glyph unicode="]" horiz-adv-x="380" d="M0 -205q0 12 9 21.5t22 9.5h135v1690h-135q-13 0 -22 9t-9 21t9 21.5t22 9.5h166q10 0 22 -8q8 -8 8 -23v-1751q0 -14 -8 -22q-9 -9 -22 -9h-166q-13 0 -22 9.5t-9 21.5z" />
<glyph unicode="^" horiz-adv-x="974" d="M3.5 778.5q-4.5 12.5 0.5 22.5l365 758q6 18 26 18q19 0 29 -16l393 -758q6 -10 2 -23.5t-14 -17.5q-10 -6 -23.5 -2t-17.5 14l-367 703l-336 -703q-6 -10 -18.5 -14.5t-22.5 0.5q-12 6 -16.5 18.5z" />
<glyph unicode="_" horiz-adv-x="1366" d="M0 -205q0 12 9.5 21.5t21.5 9.5h1151q13 0 21.5 -9.5t8.5 -21.5t-8.5 -21.5t-21.5 -9.5h-1151q-12 0 -21.5 9.5t-9.5 21.5z" />
<glyph unicode="`" horiz-adv-x="382" d="M0 1546.5q0 13.5 8 22.5q9 7 22.5 7t22.5 -7l166 -168q9 -9 9 -21.5t-9 -21.5t-22 -9t-21 9l-168 166q-8 9 -8 22.5z" />
<glyph unicode="a" horiz-adv-x="1732" d="M2 25v5q0 8 4 15l758 1516q6 16 27 16q20 0 26 -16l758 -1516q4 -8 4 -15q1 -4 -1 -9q-4 -12 -15 -17q-8 -4 -15 -4l-9 2q-12 4 -17 14l-365 727l-1108 -739q-9 -5 -17 -5q-11 0 -20 9q-8 6 -10 17zM113 121l1017 678l-339 678z" />
<glyph unicode="b" horiz-adv-x="1366" d="M0 606v182v379q0 123 70 230q68 100 180 147q81 33 160 33q122 0 229 -70q100 -68 147 -180q30 -70 33 -151q128 -47 224 -147t139 -230q30 -92 30 -193q0 -190 -102 -338q-101 -150 -266 -221q-112 -47 -238 -47q-187 0 -338 104q-149 100 -221 267q-47 109 -47 235z M61 606q0 -161 93 -305q93 -135 241 -197q93 -43 211 -43q165 0 305 93q132 89 199 241q41 96 41 211q0 92 -27 172q-28 85 -77 152q-91 123 -232 180q-11 -89 -65 -172q-68 -100 -181 -147q-81 -33 -159 -33h-349v-152zM61 819h349q105 0 194 60q86 58 127 153 q24 64 27 121v14q0 106 -60 195q-58 86 -153 127q-69 27 -135 27q-106 0 -195 -60q-86 -58 -127 -153q-27 -69 -27 -136v-348z" />
<glyph unicode="c" horiz-adv-x="1368" d="M0 788q0 245 135 441q127 192 346 287q147 61 307 61q220 0 410 -115q11 -6 14 -19q1 -4 1 -8q0 -9 -5 -16q-6 -10 -18.5 -13t-22.5 3q-175 107 -379 107q-225 0 -405 -125q-180 -120 -264 -320q-58 -135 -58 -283q0 -224 125 -407q121 -178 320 -262q135 -58 282 -58 q204 0 379 107q10 6 22.5 3t18.5 -13q5 -8 5 -16q0 -4 -1 -8q-3 -13 -14 -19q-185 -115 -410 -115q-244 0 -440 135q-192 127 -287 346q-61 147 -61 307z" />
<glyph unicode="d" horiz-adv-x="1335" d="M0 31v1423q0 17 16 27q178 96 377 96q206 0 385 -100h2q21 -12 56 -35q194 -130 284 -346q62 -142 62 -308q0 -242 -133 -440q-133 -197 -349 -287q-147 -61 -307 -61q-16 0 -22 12q-9 10 -6 27l362 1395q-23 14 -49 24q-138 58 -285 58q-175 0 -332 -80v-1405 q0 -12 -9 -21.5t-21 -9.5t-21.5 9.5t-9.5 21.5zM434 61q200 12 367 125q180 120 264 320q55 135 55 282q0 225 -123 406q-89 131 -215 209z" />
<glyph unicode="e" horiz-adv-x="974" d="M25 424l643 168l-643 166q-23 8 -23 30q0 10 7 18.5t16 10.5l643 168l-643 168q-20 7 -23 27v5q0 16 18 25l756 363q7 4 15 4q5 0 9 -2q12 -4 17 -16q6 -10 2 -22.5t-16 -18.5l-682 -326l678 -176q22 -7 22 -31q0 -10 -6.5 -18.5t-15.5 -10.5l-643 -168l643 -167 q22 -7 22 -29q0 -24 -22 -31l-678 -176l682 -328q12 -4 16 -16.5t-2 -24.5q-5 -10 -17 -14q-6 -2 -11 -3q-6 0 -13 3l-756 365q-18 10 -18 25q0 24 23 32z" />
<glyph unicode="f" horiz-adv-x="974" d="M2 31v757q0 10 7 18.5t16 10.5l643 168l-643 168q-23 8 -23 32q0 15 18 25l756 363q7 4 15 4q5 0 9 -2q13 -4 17 -16q6 -10 2 -22.5t-16 -18.5l-682 -326l678 -176q22 -7 22 -31q0 -10 -6.5 -18.5t-15.5 -10.5l-736 -192v-733q0 -12 -9 -21.5t-21 -9.5t-21.5 9.5 t-9.5 21.5z" />
<glyph unicode="g" horiz-adv-x="1730" d="M0 788q0 245 135 441q127 192 346 287q147 61 307 61q220 0 410 -115q10 -6 13 -19.5t-3 -23.5t-18.5 -13t-22.5 3q-175 107 -379 107q-224 0 -407 -125q-178 -121 -262 -320q-52 -120 -58 -248l1455 193q26 3 34 -23q27 -111 27 -205q0 -244 -135 -440 q-130 -197 -346 -287q-147 -61 -308 -61q-244 0 -440 135q-197 130 -287 346q-61 147 -61 307zM61 762q9 -207 125 -381q121 -178 320 -262q135 -58 282 -58q226 0 406 125q180 120 264 320q58 135 58 282q0 80 -19 164z" />
<glyph unicode="h" horiz-adv-x="1366" d="M0 31v1515q0 22 20 29q6 2 12 2q13 0 23 -12l551 -725l553 725q8 12 21 12q5 0 12 -2q20 -7 20 -29v-1515q0 -22 -20 -29q-7 -2 -12 -2q-13 0 -21 12l-553 725l-551 -725q-10 -12 -23 -12q-6 0 -12 2q-20 7 -20 29zM61 121l506 667l-506 666v-1333zM645 788l506 -667 v1333z" />
<glyph unicode="i" horiz-adv-x="215" d="M0 31v1515q0 12 9.5 21.5t21.5 9.5t21 -9.5t9 -21.5v-1515q0 -12 -9 -21.5t-21 -9.5t-21.5 9.5t-9.5 21.5z" />
<glyph unicode="j" d="M0 23v2v2v4v2v2v2v2h2v2v2l2 2v2h2v2q2 2 2 4l750 748v745q0 12 9 21.5t21 9.5t21.5 -9.5t9.5 -21.5v-1515q0 -11 -8 -23q-12 -8 -23 -8h-757h-2h-2h-2h-2v2h-3h-2l-2 2h-2l-2 2q-4 4 -6 4v2v2h-2v2l-2 2v2v3h-2zM104 61h654v654z" />
<glyph unicode="k" horiz-adv-x="974" d="M0 31v757v758q0 12 9.5 21.5t21.5 9.5t21 -9.5t9 -21.5v-684l705 707q9 7 22.5 7t22.5 -7q7 -9 7 -22.5t-7 -22.5l-737 -736l737 -735q8 -11 8 -23q0 -6 -2 -12q-11 -18 -29 -18h-757q-11 0 -23 8q-8 12 -8 23zM61 61h654l-654 654v-654z" />
<glyph unicode="l" d="M0 31v1515q0 12 9.5 21.5t21.5 9.5t21 -9.5t9 -21.5v-745l750 -748q0 -2 2 -4v-2h2v-2l2 -2v-2v-2l2 -2v-2v-2v-2v-4v-2l-2 -2v-3v-2l-2 -2v-2h-2v-2v-2q-2 0 -6 -4l-2 -2h-2l-2 -2h-2h-2v-2h-2h-2h-2h-3h-757q-11 0 -23 8q-8 12 -8 23zM61 61h654l-654 654v-654z" />
<glyph unicode="m" horiz-adv-x="1734" d="M2 37l365 1515q2 11 10 18t18 7q23 0 31 -23l365 -1400l364 1400q8 23 31 23q21 0 28 -25l365 -1515q1 -4 1 -8q0 -10 -7 -17q-9 -12 -25 -12h-1515q-16 0 -25 12q-7 7 -7 17q0 4 1 8zM72 61h680l-355 1358zM829 61h680l-325 1358z" />
<glyph unicode="n" d="M0 31v1515q0 24 25 31q4 1 7 1q17 0 25 -17l701 -1401v1386q0 12 9 21.5t21 9.5t21.5 -9.5t9.5 -21.5v-1515v-2v-2v-2l-2 -2v-3v-2q-4 -4 -4 -8h-2v-2h-2v-2h-2h-2v-2h-2l-2 -2h-2q-2 0 -2 -2h-2h-2h-2h-3h-757q-11 0 -23 8q-8 12 -8 23zM61 61h678l-678 1354v-1354z" />
<glyph unicode="o" horiz-adv-x="1730" d="M0 788q0 245 135 441q127 192 346 287q147 61 307 61q245 0 441 -135q197 -130 287 -346q61 -147 61 -308q0 -244 -135 -440q-130 -197 -346 -287q-147 -61 -308 -61q-244 0 -440 135q-192 127 -287 346q-61 147 -61 307zM61 788q0 -224 125 -407q121 -178 320 -262 q135 -58 282 -58q226 0 406 125q180 120 264 320q58 135 58 282q0 226 -125 406q-120 180 -320 264q-135 58 -283 58q-225 0 -405 -125q-180 -120 -264 -320q-58 -135 -58 -283z" />
<glyph unicode="p" d="M0 31v1136q0 123 70 230q68 100 180 147q81 33 160 33q122 0 229 -70q100 -68 147 -180q33 -81 33 -160q0 -123 -69 -229q-68 -100 -181 -147q-81 -33 -159 -33h-349v-727q0 -12 -9 -21.5t-21 -9.5t-21.5 9.5t-9.5 21.5zM61 819h349q105 0 194 60q86 58 127 153 q27 69 27 135q0 106 -60 195q-58 86 -153 127q-69 27 -135 27q-106 0 -195 -60q-86 -58 -127 -153q-27 -69 -27 -136v-348z" />
<glyph unicode="q" horiz-adv-x="1730" d="M0 788q0 245 135 441q127 192 346 287q147 61 307 61q130 0 261 -43q118 -42 223 -123q101 -79 173 -186t105 -232q3 -12 -3.5 -23t-18.5 -14l-680 -184l498 -498l223 -221q7 -9 7 -22.5t-7 -22.5q-9 -9 -22.5 -9t-22.5 9l-201 201q-99 -92 -227 -148q-147 -61 -308 -61 q-244 0 -440 135q-192 127 -287 346q-61 147 -61 307zM61 788q0 -224 125 -407q121 -178 320 -262q135 -58 282 -58q148 0 283 58q118 50 209 135l-514 512q-12 16 -6 31q3 17 20 20l703 191q-49 153 -162 276q-123 132 -293 191q-115 41 -240 41q-225 0 -405 -125 q-180 -120 -264 -320q-58 -135 -58 -283z" />
<glyph unicode="r" d="M0 31v757q0 11 8 23q12 8 23 8h194l-219 332q-6 6 -6 16q0 123 70 230q68 100 180 147q81 33 160 33q122 0 229 -70q100 -68 147 -180q33 -81 33 -160q0 -123 -69 -229q-68 -100 -181 -147q-81 -33 -159 -33h-70l473 -711q7 -11 5 -23t-13 -20q-7 -4 -15 -4q-4 0 -8 1 q-13 3 -20 13l-496 744h-205v-727q0 -12 -9 -21.5t-21 -9.5t-21.5 9.5t-9.5 21.5zM61 1176l238 -357h111q105 0 194 60q86 58 127 153q27 69 27 135q0 106 -60 195q-58 86 -153 127q-69 27 -135 27q-106 0 -195 -60q-86 -58 -127 -153q-24 -58 -27 -127z" />
<glyph unicode="s" d="M0 401q0 12 9.5 21.5t21.5 9.5t21 -9.5t9 -21.5q0 -84 43 -159q42 -76 113 -123q56 -34 109 -45q40 -11 84 -11q88 0 165 41q78 43 125 113q35 54 48 105q10 48 10 84q0 87 -41 161t-115 123q-55 33 -108 47l-177 43h-6q-71 18 -127 56q-57 36 -98 90q-86 109 -86 248 q0 46 12 96q17 66 56 127q35 52 92 96q111 84 250 84q48 0 98 -12q139 -35 225 -144q86 -110 86 -243q0 -12 -9.5 -21.5t-21.5 -9.5t-21 9t-9 22q0 81 -43 159q-40 73 -113 121q-44 31 -108 47q-53 11 -84 11q-89 0 -166 -41q-74 -41 -125 -113q-34 -56 -47 -107 q-11 -53 -11 -81q0 -90 41 -164q38 -69 115 -123q53 -29 92 -41q4 0 6 -2l193 -47q64 -14 127 -56q57 -36 98 -90q86 -109 86 -245q0 -50 -12 -99q-19 -72 -55 -125q-34 -51 -93 -96q-107 -84 -249 -84q-58 0 -99 10q-66 17 -127 56q-51 34 -98 88q-86 114 -86 245z" />
<glyph unicode="t" d="M0 1538v2v2v4v2v2v2v2h2v2v3l2 2v2h2v2l6 6h2v2h2l2 2h2h3l2 2h2h2h2h757q22 0 29 -21q3 -6 3 -12q0 -11 -11 -20l-385 -355v-1138q0 -12 -9 -21.5t-22 -9.5q-12 0 -21.5 9.5t-9.5 21.5v1138l-354 355q0 2 -2 2v2v2h-2v2l-2 2v2v2h-2zM104 1516l291 -291l316 291h-607z " />
<glyph unicode="u" d="M0 393v2v15v4v370v9v753q0 12 9.5 21.5t21.5 9.5t21 -9.5t9 -21.5v-684l705 707q11 8 23 8q6 0 12 -2q18 -11 18 -29v-1136q0 -124 -69 -230q-68 -100 -181 -147q-81 -33 -159 -33q-123 0 -230 70q-100 68 -147 180q-30 76 -33 143zM61 395q3 -97 60 -180 q58 -86 153 -127q69 -27 136 -27q105 0 194 60q86 58 127 153q27 69 27 136v1063l-697 -697v-381z" />
<glyph unicode="v" horiz-adv-x="1730" d="M2 1556q4 12 14 17q8 4 15 4l9 -1q12 -4 17 -15l365 -727l1108 737q6 6 17 6l1 -1q12 0 19 -7q7 -6 9 -17q1 -3 1 -6q0 -7 -4 -14l-758 -1516q-6 -16 -27 -16q-18 0 -28 16l-756 1516q-4 8 -4 15q1 5 2 9zM449 778l339 -680l678 1358z" />
<glyph unicode="w" horiz-adv-x="1734" d="M2 1538q-1 4 -1 8q0 8 5 16q7 12 21 15h5q10 0 18 -5q10 -7 13 -20l334 -1394l363 1384q7 25 31 25q10 0 18 -7t10 -18l365 -1384l334 1394q4 13 14 20q8 5 18 5h6q12 -3 19 -15q5 -8 5 -16q0 -4 -1 -8l-365 -1515q-8 -23 -28 -23q-24 0 -31 23l-364 1390l-365 -1390 q-7 -23 -31 -23q-10 0 -18 7t-10 16z" />
<glyph unicode="x" d="M2 1556q4 12 14 17q8 4 15 4l9 -1q12 -4 17 -15l349 -697l342 697q6 11 18 15q4 1 8 1q7 0 14 -4q12 -5 16.5 -17t-1.5 -24l-363 -737l375 -750q4 -7 4 -15t-4 -16q-11 -14 -27 -14h-757q-17 0 -27 14q-4 8 -4 16t4 15l369 750l-369 737q-4 8 -4 15q1 5 2 9zM80 61h659 l-333 664z" />
<glyph unicode="y" horiz-adv-x="974" d="M4 1561q6 16 27 16h757q16 0 25 -12q6 -8 6 -17q0 -5 -2 -10l-393 -1515q-3 -12 -14 -19q-8 -5 -16 -5q-3 0 -7 1q-12 5 -18.5 16t-3.5 23l192 743l-551 746q-6 10 -6 19q0 7 4 14zM92 1516l486 -658l172 658h-658z" />
<glyph unicode="z" d="M0 1546q0 12 9.5 21.5t21.5 9.5h757q16 0 27 -14q7 -19 0 -31l-735 -1471h708q12 0 21.5 -9t9.5 -21t-9.5 -21.5t-21.5 -9.5h-757q-17 0 -27 14q-4 8 -4 16t4 15l735 1471h-708q-12 0 -21.5 9t-9.5 21z" />
<glyph unicode="{" horiz-adv-x="577" d="M8 768q-17 20 0 41l158 188v549q0 13 10 23q8 8 21 8h196q13 0 22 -9.5t9 -21.5t-9 -21t-22 -9h-166v-531q0 -12 -6 -18l-149 -179l149 -178q6 -6 6 -18v-766h166q13 0 22 -9.5t9 -21.5t-9 -21.5t-22 -9.5h-196q-12 0 -21 9q-10 10 -10 22v785z" />
<glyph unicode="|" horiz-adv-x="215" d="M0 -410v1956q0 12 9.5 21.5t21.5 9.5t21 -9.5t9 -21.5v-1956q0 -12 -9 -21t-21 -9t-21.5 9t-9.5 21z" />
<glyph unicode="}" horiz-adv-x="579" d="M0 -205q0 12 9.5 21.5t21.5 9.5h166v766q0 10 8 18l149 178l-149 179q-8 8 -8 18v531h-166q-12 0 -21.5 9t-9.5 21t9.5 21.5t21.5 9.5h196q11 0 23 -8q8 -8 8 -23v-549l160 -188q17 -21 0 -41l-160 -188v-785q0 -14 -8 -22q-14 -9 -23 -9h-196q-12 0 -21.5 9.5t-9.5 21.5 z" />
<glyph unicode="~" horiz-adv-x="950" d="M0 727q0 52 25 100q26 51 71 80q32 21 58 29q27 8 63 8q53 0 100 -24q51 -26 80 -74l58 -82v-4q19 -25 53 -45q39 -17 74 -17q18 0 43 7t43 20q33 23 49 55q18 34 18 74q0 26 -10 53q-3 12 2.5 24t15.5 15q12 5 24.5 -0.5t16.5 -17.5q13 -41 13 -74q0 -52 -25 -100 q-26 -50 -72 -80q-32 -22 -57 -29q-27 -8 -61 -8q-55 0 -103 25q-51 26 -80 71q-2 2 -2 6l-49 74q-22 32 -59 51q-36 19 -72 19q-24 0 -45 -6q-24 -7 -41 -21q-31 -19 -51 -57q-19 -36 -19 -72q0 -24 11 -57q4 -12 -1 -23t-16 -16q-12 -5 -24.5 0.5t-16.5 17.5 q-14 44 -14 78z" />
<glyph unicode="&#xa1;" horiz-adv-x="272" d="M0 1518q0 12 2 18q6 12 8 14q6 11 27 23q12 4 22 4q3 0 9.5 -1t9.5 -1q12 -6 14 -8q16 -10 23 -27q4 -12 4 -22q0 -13 -2 -19q-6 -12 -8 -14q-10 -17 -27 -23q-12 -4 -23 -4q-12 0 -18 2q-12 6 -14 8q-14 8 -23 27q-4 12 -4 23zM29 31v1349q0 12 9 21.5t21 9.5t21.5 -9.5 t9.5 -21.5v-1349q0 -12 -9.5 -21.5t-21.5 -9.5t-21 9.5t-9 21.5z" />
<glyph unicode="&#xa6;" horiz-adv-x="215" d="M0 31v561q0 12 9.5 21.5t21.5 9.5t21 -9.5t9 -21.5v-561q0 -12 -9 -21.5t-21 -9.5t-21.5 9.5t-9.5 21.5zM0 985v561q0 12 9.5 21.5t21.5 9.5t21 -9.5t9 -21.5v-561q0 -12 -9 -21.5t-21 -9.5t-21.5 9.5t-9.5 21.5z" />
<glyph unicode="&#xa8;" horiz-adv-x="804" d="M0 1518q0 12 2 18q6 12 8 14q8 14 27 23q12 4 22 4q3 0 9.5 -1t9.5 -1q12 -6 14 -8q11 -6 23 -27q4 -12 4 -22q0 -13 -2 -19q-6 -12 -8 -14q-10 -17 -27 -23q-12 -4 -23 -4q-12 0 -18 2q-12 6 -14 8q-14 8 -23 27q-4 12 -4 23zM532 1518q0 9 3 18q6 12 8 14q8 13 24 23 q16 4 25 4q3 0 8.5 -1t7.5 -1q13 -5 17 -8q12 -7 20 -27q6 -9 6 -22q0 -7 -4 -19q0 -2 -6 -14q-10 -16 -27 -23q-12 -4 -22 -4q-13 0 -19 2q-8 3 -16 8q-15 11 -20 27q-5 15 -5 23z" />
<glyph unicode="&#xaa;" horiz-adv-x="778" d="M2 788q0 12 9.5 21.5t21.5 9.5h561q12 0 21.5 -9.5t9.5 -21.5t-9.5 -21t-21.5 -9h-561q-12 0 -21.5 9t-9.5 21zM2 979.5q-2 10.5 4 19.5l279 562q10 16 28 16q21 0 27 -16l281 -562q6 -12 1.5 -24t-16.5 -17q-11 -6 -23 -2t-18 15l-125 250l-391 -260q-7 -6 -18.5 -5.5 t-18.5 7.5q-8 6 -10 16.5zM113 1075l301 201l-101 201z" />
<glyph unicode="&#xab;" d="M8 768q-17 20 0 41l363 395q9 9 22.5 9t22.5 -9q9 -8 9 -21t-9 -22l-344 -373l344 -372q9 -9 9 -22.5t-9 -22.5q-9 -8 -22.5 -7.5t-22.5 9.5zM362 788q0 12 11 23l393 393q9 9 22.5 9t22.5 -9q7 -9 7 -21.5t-7 -21.5l-373 -373l373 -372q7 -9 7 -21.5t-7 -21.5 q-9 -9 -22.5 -9t-22.5 9l-393 393q-11 11 -11 22z" />
<glyph unicode="&#xad;" d="M0 788q0 12 9.5 21.5t21.5 9.5h757q12 0 21.5 -9.5t9.5 -21.5t-9.5 -21t-21.5 -9h-757q-12 0 -21.5 9t-9.5 21z" />
<glyph unicode="&#xb4;" horiz-adv-x="382" d="M0 1379.5q0 12.5 8 21.5l168 168q8 7 21 7t22 -7q9 -9 9 -22.5t-9 -22.5l-166 -166q-9 -9 -22.5 -9t-22.5 9q-8 9 -8 21.5z" />
<glyph unicode="&#xba;" horiz-adv-x="776" d="M0 788q0 12 9.5 21.5t21.5 9.5h561q12 0 21.5 -9.5t9.5 -21.5t-9.5 -21t-21.5 -9h-561q-12 0 -21.5 9t-9.5 21zM0 1266q0 95 53 174q50 74 137 112q58 25 121 25q95 0 174 -53q72 -49 113 -138q25 -66 25 -120q0 -94 -54 -174q-54 -75 -137 -113q-58 -25 -121 -25 q-94 0 -174 54q-78 56 -112 137q-25 58 -25 121zM61 1266q0 -78 43 -140q40 -61 109 -90q52 -20 98 -20q75 0 140 43q64 44 90 110q20 48 20 97q0 77 -43 139q-41 62 -110 90q-44 21 -97 21q-77 0 -139 -43q-61 -40 -90 -109q-21 -46 -21 -98z" />
<glyph unicode="&#xbb;" d="M0 394.5q0 12.5 8 21.5l373 372l-373 373q-8 9 -8 21.5t8 21.5q9 9 22.5 9t22.5 -9l393 -393q11 -11 11 -23q0 -11 -11 -22l-393 -393q-9 -9 -22.5 -9t-22.5 9q-8 9 -8 21.5zM393.5 393.5q-0.5 13.5 7.5 22.5l347 372l-347 373q-8 9 -7.5 22.5t9.5 20.5q9 9 23 9t23 -9 l362 -395q17 -21 0 -41l-362 -395q-9 -9 -23 -9.5t-23 7.5q-9 9 -9.5 22.5z" />
<glyph unicode="&#xbf;" d="M0 168q0 99 49 192q52 90 135 144q51 36 121 55h4l148 37q37 8 80 35q31 17 61 55q53 68 53 156q0 26 -6 61q-10 35 -37 78q-18 29 -55 59q-69 54 -158 54q-28 0 -63 -7q-38 -10 -80 -34q-32 -22 -59 -56q-56 -69 -56 -153q0 -12 -9.5 -21.5t-21.5 -9.5t-21 9.5t-9 21.5 q0 79 39 149q39 67 104 111q45 28 98 43q36 8 78 8q83 0 150 -37q71 -38 114 -102q32 -50 46 -98q8 -36 8 -76q0 -83 -37 -150q-42 -70 -107 -112q-46 -32 -98 -43l-141 -35q-1 0 -2 -1t-2 -1q-66 -17 -109 -47q-39 -23 -84 -76q-72 -94 -72 -209q0 -32 11 -82 q14 -55 47 -106q35 -50 78 -82q90 -72 213 -72q48 0 84 10q51 10 108 45q44 29 82 76q74 93 74 207q0 12 9 21.5t21 9.5t21.5 -9.5t9.5 -21.5q0 -103 -51 -191q-46 -84 -133 -143q-61 -39 -127 -53q-54 -13 -98 -13q-104 0 -195 48q-87 49 -147 133q-37 55 -56 125 q-12 50 -12 98zM338 1339q0 9 4 17q4 12 6 16q12 15 27 21q12 6 22 6q7 0 19 -4q4 0 9 -2.5l7 -3.5q15 -11 21 -27q4 -6 4 -23q0 -12 -2 -18q-2 -5 -9 -16q-12 -16 -24 -21q-16 -4 -25 -4q-10 0 -16 2q-8 3 -16 8q-16 12 -21 25q-6 12 -6 24z" />
<glyph unicode="&#xc0;" horiz-adv-x="1732" d="M2 25q-2 11 4 20l758 1516q6 16 27 16q20 0 26 -16l758 -1516q6 -12 2.5 -24t-14.5 -17q-12 -6 -24 -2.5t-17 14.5l-365 727l-1108 -739q-21 -12 -37 4q-8 6 -10 17zM113 121l1017 678l-339 678zM678 1955.5q0 13.5 8 22.5q9 8 22.5 8t22.5 -8l166 -168q9 -9 9 -21.5 t-9 -21.5t-22 -9t-21 9l-168 166q-8 9 -8 22.5z" />
<glyph unicode="&#xc1;" horiz-adv-x="1732" d="M2 25q-2 11 4 20l758 1516q6 16 27 16q20 0 26 -16l758 -1516q6 -12 2.5 -24t-14.5 -17q-12 -6 -24 -2.5t-17 14.5l-365 727l-1108 -739q-21 -12 -37 4q-8 6 -10 17zM113 121l1017 678l-339 678zM676 1782.5q0 12.5 8 21.5l168 168q8 8 21 8t22 -8q9 -9 9 -22.5t-9 -22.5 l-166 -166q-9 -9 -22.5 -9t-22.5 9q-8 9 -8 21.5z" />
<glyph unicode="&#xc2;" horiz-adv-x="1732" d="M2 25q-2 11 4 20l758 1516q6 16 27 16q20 0 26 -16l758 -1516q6 -12 2.5 -24t-14.5 -17q-12 -6 -24 -2.5t-17 14.5l-365 727l-1108 -739q-21 -12 -37 4q-8 6 -10 17zM113 121l1017 678l-339 678zM559 1791q1 13 10 21l199 166q8 8 19 8t20 -8l197 -166q9 -8 10 -21 t-6 -22q-8 -9 -21 -10t-22 6l-179 150l-176 -150q-24 -17 -45 4q-7 9 -6 22z" />
<glyph unicode="&#xc3;" horiz-adv-x="1732" d="M2 25q-2 11 4 20l758 1516q6 16 27 16q20 0 26 -16l758 -1516q6 -12 2.5 -24t-14.5 -17q-12 -6 -24 -2.5t-17 14.5l-365 727l-1108 -739q-21 -12 -37 4q-8 6 -10 17zM113 121l1017 678l-339 678zM528 1823q0 35 17 69q18 34 49 56q10 7 41 20q21 6 43 6q36 0 70 -18 q30 -13 55 -49l35 -54l2 -2q11 -14 28 -24q18 -10 41 -10q19 0 27 4q4 1 22 10q19 13 29 33t10 41q0 15 -6 30q-3 12 3 23.5t18 15.5q11 5 23 -0.5t16 -17.5q8 -21 8 -51q0 -31 -17 -70q-21 -36 -49 -55q-19 -13 -41 -19q-21 -6 -43 -6q-30 0 -69 17q-39 24 -56 51q0 2 -2 2 l-30 47q-11 16 -33 31q-20 10 -41 10q-9 0 -25 -4q-10 -3 -24 -13q-21 -14 -29 -32q-10 -20 -10 -41q0 -16 6 -31q5 -12 -0.5 -24.5t-17.5 -16.5q-11 -5 -23 0.5t-16 17.5q-11 33 -11 54z" />
<glyph unicode="&#xc4;" horiz-adv-x="1732" d="M2 25q-2 11 4 20l758 1516q6 16 27 16q20 0 26 -16l758 -1516q6 -12 2.5 -24t-14.5 -17q-12 -6 -24 -2.5t-17 14.5l-365 727l-1108 -739q-21 -12 -37 4q-8 6 -10 17zM113 121l1017 678l-339 678zM461 1927q0 13 2 19q6 12 8 14q7 12 27 22q15 5 22 5q3 0 9.5 -1t9.5 -1 q10 -5 14 -9q10 -6 22 -26q5 -15 5 -23q0 -12 -2 -18q-6 -12 -9 -15q-10 -17 -26 -22q-12 -4 -23 -4q-12 0 -18 2q-14 7 -15 8q-12 7 -22 27q-4 12 -4 22zM993 1927q0 13 2 19q5 10 9 14q7 12 24 22q20 5 25 5q3 0 8.5 -1t7.5 -1q10 -3 16 -9q14 -8 21 -26q6 -9 6 -23 q0 -6 -4 -18q0 -3 -6 -15q-9 -15 -27 -22q-12 -4 -22 -4q-13 0 -19 2q-8 3 -16 8q-16 12 -21 27q-4 12 -4 22z" />
<glyph unicode="&#xc7;" horiz-adv-x="1368" d="M0 788q0 245 135 441q127 192 346 287q147 61 307 61q220 0 410 -115q11 -6 14 -19t-4 -24q-6 -10 -18.5 -13t-22.5 3q-175 107 -379 107q-225 0 -405 -125q-180 -120 -264 -320q-58 -135 -58 -283q0 -224 125 -407q121 -178 320 -262q135 -58 282 -58q204 0 379 107 q10 6 22.5 3t18.5 -13q7 -11 4 -24t-14 -19q-185 -115 -410 -115q-87 0 -170 18l-200 -243q-8 -9 -21 -10t-22 6q-9 9 -10 21.5t6 21.5l182 221q-121 41 -205 100q-192 127 -287 346q-61 147 -61 307z" />
<glyph unicode="&#xc8;" horiz-adv-x="974" d="M2 397q3 20 23 27l643 168l-643 166q-23 8 -23 30q0 10 7 18.5t16 10.5l643 168l-643 168q-20 7 -23 27q-3 19 18 30l756 363q12 6 24.5 2t16.5 -16q6 -10 2 -22.5t-16 -18.5l-682 -326l678 -176q22 -7 22 -31q0 -10 -6.5 -18.5t-15.5 -10.5l-643 -168l643 -167 q22 -7 22 -29q0 -24 -22 -31l-678 -176l682 -328q12 -4 16 -16.5t-2 -24.5q-4 -10 -16.5 -14.5t-24.5 0.5l-756 365q-21 11 -18 30zM300 1955.5q0 13.5 7 22.5q9 8 22.5 8t22.5 -8l166 -168q9 -9 9 -21.5t-9 -21.5t-22.5 -9t-20.5 9l-168 166q-7 9 -7 22.5z" />
<glyph unicode="&#xc9;" horiz-adv-x="974" d="M2 397q3 20 23 27l643 168l-643 166q-23 8 -23 30q0 10 7 18.5t16 10.5l643 168l-643 168q-20 7 -23 27q-3 19 18 30l756 363q12 6 24.5 2t16.5 -16q6 -10 2 -22.5t-16 -18.5l-682 -326l678 -176q22 -7 22 -31q0 -10 -6.5 -18.5t-15.5 -10.5l-643 -168l643 -167 q22 -7 22 -29q0 -24 -22 -31l-678 -176l682 -328q12 -4 16 -16.5t-2 -24.5q-4 -10 -16.5 -14.5t-24.5 0.5l-756 365q-21 11 -18 30zM294 1788.5q0 12.5 7 21.5l168 168q7 8 20.5 8t22.5 -8q9 -9 9 -22.5t-9 -22.5l-166 -166q-9 -9 -22.5 -9t-22.5 9q-7 9 -7 21.5z" />
<glyph unicode="&#xca;" horiz-adv-x="974" d="M2 397q3 20 23 27l643 168l-643 166q-23 8 -23 30q0 10 7 18.5t16 10.5l643 168l-643 168q-20 7 -23 27q-3 19 18 30l756 363q12 6 24.5 2t16.5 -16q6 -10 2 -22.5t-16 -18.5l-682 -326l678 -176q22 -7 22 -31q0 -10 -6.5 -18.5t-15.5 -10.5l-643 -168l643 -167 q22 -7 22 -29q0 -24 -22 -31l-678 -176l682 -328q12 -4 16 -16.5t-2 -24.5q-4 -10 -16.5 -14.5t-24.5 0.5l-756 365q-21 11 -18 30zM184.5 1791q1.5 13 10.5 21l198 166q7 8 18.5 8t20.5 -8l197 -166q9 -8 10 -21t-6 -22q-8 -9 -21 -10t-22 6l-178 150l-176 -150 q-24 -17 -46 4q-7 9 -5.5 22z" />
<glyph unicode="&#xcb;" horiz-adv-x="974" d="M2 397q3 20 23 27l643 168l-643 166q-23 8 -23 30q0 10 7 18.5t16 10.5l643 168l-643 168q-20 7 -23 27q-3 19 18 30l756 363q12 6 24.5 2t16.5 -16q6 -10 2 -22.5t-16 -18.5l-682 -326l678 -176q22 -7 22 -31q0 -10 -6.5 -18.5t-15.5 -10.5l-643 -168l643 -167 q22 -7 22 -29q0 -24 -22 -31l-678 -176l682 -328q12 -4 16 -16.5t-2 -24.5q-4 -10 -16.5 -14.5t-24.5 0.5l-756 365q-21 11 -18 30zM84 1927q0 13 2 19q6 12 8 14q7 12 27 22q15 5 22 5q3 0 9.5 -1t9.5 -1q10 -5 14 -9q12 -7 23 -26q4 -12 4 -23q0 -12 -2 -18q-7 -14 -8 -15 q-10 -16 -27 -22q-12 -4 -23 -4q-12 0 -18 2q-12 6 -14 8q-14 8 -23 27q-4 12 -4 22zM616 1927q0 13 2 19q5 10 9 14q7 12 24 22q20 5 25 5q3 0 8.5 -1t7.5 -1q12 -4 17 -9q13 -8 20 -26q6 -9 6 -23q0 -6 -4 -18q0 -3 -6 -15q-9 -15 -27 -22q-12 -4 -22 -4q-13 0 -19 2 q-8 3 -16 8q-15 11 -20 27q-5 15 -5 22z" />
<glyph unicode="&#xcc;" horiz-adv-x="382" d="M0 1955.5q0 13.5 8 22.5q9 8 22.5 8t22.5 -8l166 -168q9 -9 9 -21.5t-9 -21.5t-22 -9t-21 9l-168 166q-8 9 -8 22.5zM82 31v1515q0 12 9.5 21.5t21.5 9.5t21 -9.5t9 -21.5v-1515q0 -12 -9 -21.5t-21 -9.5t-21.5 9.5t-9.5 21.5z" />
<glyph unicode="&#xcd;" horiz-adv-x="382" d="M0 1788.5q0 12.5 8 21.5l168 168q8 8 21 8t22 -8q9 -9 9 -22.5t-9 -22.5l-166 -166q-9 -9 -22.5 -9t-22.5 9q-8 9 -8 21.5zM84 31v1515q0 12 9.5 21.5t21.5 9.5t21 -9.5t9 -21.5v-1515q0 -12 -9 -21.5t-21 -9.5t-21.5 9.5t-9.5 21.5z" />
<glyph unicode="&#xce;" horiz-adv-x="612" d="M2 1791q1 13 10 21l199 166q7 8 18.5 8t20.5 -8l196 -166q9 -8 10.5 -21t-5.5 -22q-8 -9 -21 -10t-22 6l-179 150l-176 -150q-24 -17 -45 4q-7 9 -6 22zM201 31v1515q0 12 9 21.5t21 9.5t21.5 -9.5t9.5 -21.5v-1515q0 -12 -9.5 -21.5t-21.5 -9.5t-21 9.5t-9 21.5z" />
<glyph unicode="&#xcf;" horiz-adv-x="804" d="M0 1927q0 13 2 19q6 12 8 14q7 12 27 22q15 5 22 5q3 0 9.5 -1t9.5 -1q10 -5 14 -9q12 -7 23 -26q4 -12 4 -23q0 -12 -2 -18q-7 -14 -8 -15q-10 -16 -27 -22q-12 -4 -23 -4q-12 0 -18 2q-12 6 -14 8q-14 8 -23 27q-4 12 -4 22zM297 31v1515q0 12 9.5 21.5t21.5 9.5 t21 -9.5t9 -21.5v-1515q0 -12 -9 -21.5t-21 -9.5t-21.5 9.5t-9.5 21.5zM532 1927q0 10 3 19q6 12 8 14q7 12 24 22q20 5 25 5q3 0 8.5 -1t7.5 -1q12 -4 17 -9q13 -8 20 -26q6 -9 6 -23q0 -6 -4 -18q0 -3 -6 -15q-9 -15 -27 -22q-12 -4 -22 -4q-13 0 -19 2q-8 3 -16 8 q-15 11 -20 27q-5 15 -5 22z" />
<glyph unicode="&#xd0;" horiz-adv-x="1503" d="M0 788q0 12 9.5 21.5t21.5 9.5h135v635q0 17 16 27q178 96 379 96q241 0 440 -135q195 -131 285 -346q64 -147 64 -308q0 -235 -129 -432q-128 -192 -332 -284q-141 -66 -297 -72q-16 0 -25 12t-6 27l189 719h-523v-727q0 -12 -9 -21.5t-21 -9.5t-21.5 9.5t-9.5 21.5v727 h-135q-12 0 -21.5 9t-9.5 21zM227 819h561q16 0 25 -12q10 -13 4 -27l-186 -714q196 18 350 129q173 125 252 317q55 135 55 276q0 222 -125 406q-120 181 -319 264q-138 58 -283 58q-177 0 -334 -80v-617z" />
<glyph unicode="&#xd1;" d="M0 31v1515q0 24 25 31q22 4 32 -16l701 -1401v1386q0 12 9 21.5t21 9.5t21.5 -9.5t9.5 -21.5v-1515v-2v-2v-2l-2 -2v-3v-2q-4 -4 -4 -8h-2v-2h-2v-2h-2h-2v-2h-2l-2 -2h-2q-2 0 -2 -2h-2h-2h-2h-3h-757q-11 0 -23 8q-8 12 -8 23zM61 61h678l-678 1354v-1354zM145 1833 q0 36 17 70q17 33 49 55q10 7 41 20q24 7 43 7q34 0 70 -19q30 -13 55 -49l35 -53l2 -2q13 -16 28 -25q17 -10 41 -10q19 0 27 4q4 1 22 10q19 13 29 33t10 41q0 16 -6 31q-3 12 3 23.5t18 15.5q11 5 23 -1t16 -18q8 -21 8 -51q0 -31 -17 -70q-21 -36 -49 -55 q-17 -11 -41 -18q-25 -7 -43 -7q-30 0 -69 17q-39 24 -56 51q0 2 -2 2l-30 47q-11 16 -33 31q-20 10 -41 10q-9 0 -25 -4q-12 -3 -24 -12q-21 -14 -29 -33q-10 -20 -10 -41q0 -16 6 -31q5 -12 -0.5 -24.5t-17.5 -16.5q-11 -5 -23 1t-16 18q-11 33 -11 53z" />
<glyph unicode="&#xd2;" horiz-adv-x="1730" d="M0 788q0 245 135 441q127 192 346 287q147 61 307 61q245 0 441 -135q197 -130 287 -346q61 -147 61 -308q0 -244 -135 -440q-130 -197 -346 -287q-147 -61 -308 -61q-244 0 -440 135q-192 127 -287 346q-61 147 -61 307zM61 788q0 -224 125 -407q121 -178 320 -262 q135 -58 282 -58q226 0 406 125q180 120 264 320q58 135 58 282q0 226 -125 406q-120 180 -320 264q-135 58 -283 58q-225 0 -405 -125q-180 -120 -264 -320q-58 -135 -58 -283zM674 1955.5q0 13.5 8 22.5q9 8 22.5 8t22.5 -8l166 -168q9 -9 9 -21.5t-9 -21.5t-22 -9t-21 9 l-168 166q-8 9 -8 22.5z" />
<glyph unicode="&#xd3;" horiz-adv-x="1730" d="M0 788q0 245 135 441q127 192 346 287q147 61 307 61q245 0 441 -135q197 -130 287 -346q61 -147 61 -308q0 -244 -135 -440q-130 -197 -346 -287q-147 -61 -308 -61q-244 0 -440 135q-192 127 -287 346q-61 147 -61 307zM61 788q0 -224 125 -407q121 -178 320 -262 q135 -58 282 -58q226 0 406 125q180 120 264 320q58 135 58 282q0 226 -125 406q-120 180 -320 264q-135 58 -283 58q-225 0 -405 -125q-180 -120 -264 -320q-58 -135 -58 -283zM672 1788.5q0 12.5 8 21.5l168 168q8 8 21 8t22 -8q9 -9 9 -22.5t-9 -22.5l-166 -166 q-9 -9 -22.5 -9t-22.5 9q-8 9 -8 21.5z" />
<glyph unicode="&#xd4;" horiz-adv-x="1730" d="M0 788q0 245 135 441q127 192 346 287q147 61 307 61q245 0 441 -135q197 -130 287 -346q61 -147 61 -308q0 -244 -135 -440q-130 -197 -346 -287q-147 -61 -308 -61q-244 0 -440 135q-192 127 -287 346q-61 147 -61 307zM61 788q0 -224 125 -407q121 -178 320 -262 q135 -58 282 -58q226 0 406 125q180 120 264 320q58 135 58 282q0 226 -125 406q-120 180 -320 264q-135 58 -283 58q-225 0 -405 -125q-180 -120 -264 -320q-58 -135 -58 -283zM561 1791q1 13 10 21l199 166q8 8 19 8t20 -8l197 -166q9 -8 10 -21t-6 -22q-8 -9 -21 -10 t-22 6l-179 150l-176 -150q-24 -17 -45 4q-7 9 -6 22z" />
<glyph unicode="&#xd5;" horiz-adv-x="1730" d="M0 788q0 245 135 441q127 192 346 287q147 61 307 61q245 0 441 -135q197 -130 287 -346q61 -147 61 -308q0 -244 -135 -440q-130 -197 -346 -287q-147 -61 -308 -61q-244 0 -440 135q-192 127 -287 346q-61 147 -61 307zM61 788q0 -224 125 -407q121 -178 320 -262 q135 -58 282 -58q226 0 406 125q180 120 264 320q58 135 58 282q0 226 -125 406q-120 180 -320 264q-135 58 -283 58q-225 0 -405 -125q-180 -120 -264 -320q-58 -135 -58 -283zM524 1833q0 36 17 70q17 33 49 55q10 7 41 20q24 7 43 7q33 0 69 -19q31 -14 56 -49l35 -53 l2 -2q13 -16 28 -25q18 -10 41 -10q19 0 27 4q4 1 22 10q19 13 29 33t10 41q0 16 -6 31q-3 12 3 23.5t18 15.5q11 5 23 -1t16 -18q8 -21 8 -51q0 -31 -17 -70q-21 -36 -49 -55q-17 -11 -41 -18t-43 -7q-30 0 -69 17q-39 24 -56 51q0 2 -2 2l-30 47q-11 16 -33 31 q-20 10 -41 10q-9 0 -25 -4q-12 -3 -24 -12q-21 -14 -29 -33q-10 -20 -10 -41q0 -16 6 -31q4 -12 -1.5 -24t-17.5 -17q-11 -5 -22 1t-16 18q-11 33 -11 53z" />
<glyph unicode="&#xd6;" horiz-adv-x="1730" d="M0 788q0 245 135 441q127 192 346 287q147 61 307 61q245 0 441 -135q197 -130 287 -346q61 -147 61 -308q0 -244 -135 -440q-130 -197 -346 -287q-147 -61 -308 -61q-244 0 -440 135q-192 127 -287 346q-61 147 -61 307zM61 788q0 -224 125 -407q121 -178 320 -262 q135 -58 282 -58q226 0 406 125q180 120 264 320q58 135 58 282q0 226 -125 406q-120 180 -320 264q-135 58 -283 58q-225 0 -405 -125q-180 -120 -264 -320q-58 -135 -58 -283zM463 1927q0 13 2 19q6 12 8 14q7 12 27 22q15 5 22 5q3 0 9.5 -1t9.5 -1q10 -5 14 -9 q12 -7 23 -26q4 -12 4 -23q0 -12 -2 -18q-6 -12 -9 -15q-10 -17 -26 -22q-12 -4 -23 -4q-12 0 -18 2q-14 7 -15 8q-12 7 -22 27q-4 12 -4 22zM995 1927q0 13 2 19q5 10 9 14q7 12 24 22q20 5 25 5q3 0 8.5 -1t7.5 -1q10 -3 16 -9q14 -8 21 -26q6 -9 6 -23q0 -6 -4 -18 q0 -3 -6 -15q-9 -15 -27 -22q-12 -4 -22 -4q-13 0 -19 2q-8 3 -16 8q-16 12 -21 27q-4 12 -4 22z" />
<glyph unicode="&#xd7;" horiz-adv-x="976" d="M2 394q-1 13 8 22l359 372l-359 373q-9 9 -8 22t10 21q9 9 21.5 9t21.5 -9l357 -370l356 370q9 9 21.5 9t21.5 -9q9 -8 10 -21t-8 -22l-358 -373l358 -372q9 -9 8 -22t-10 -21q-9 -9 -21.5 -9t-21.5 9l-356 370l-357 -370q-9 -9 -21.5 -9t-21.5 9q-9 8 -10 21z" />
<glyph unicode="&#xd9;" d="M0 393v2v15v4v370v9v753q0 12 9.5 21.5t21.5 9.5t21 -9.5t9 -21.5v-684l705 707q16 12 35 6q18 -11 18 -29v-1136q0 -124 -69 -230q-68 -100 -181 -147q-81 -33 -159 -33q-123 0 -230 70q-100 68 -147 180q-30 76 -33 143zM61 395q3 -97 60 -180q58 -86 153 -127 q69 -27 136 -27q105 0 194 60q86 58 127 153q27 69 27 136v1063l-697 -697v-381zM296 1955.5q0 13.5 7 22.5q9 8 22.5 8t22.5 -8l166 -168q9 -9 9 -21.5t-9 -21.5t-22.5 -9t-20.5 9l-168 166q-7 9 -7 22.5z" />
<glyph unicode="&#xda;" d="M0 393v2v15v4v370v9v753q0 12 9.5 21.5t21.5 9.5t21 -9.5t9 -21.5v-684l705 707q16 12 35 6q18 -11 18 -29v-1136q0 -124 -69 -230q-68 -100 -181 -147q-81 -33 -159 -33q-123 0 -230 70q-100 68 -147 180q-30 76 -33 143zM61 395q3 -97 60 -180q58 -86 153 -127 q69 -27 136 -27q105 0 194 60q86 58 127 153q27 69 27 136v1063l-697 -697v-381zM296 1788.5q0 12.5 7 21.5l168 168q7 8 20.5 8t22.5 -8q9 -9 9 -22.5t-9 -22.5l-166 -166q-9 -9 -22.5 -9t-22.5 9q-7 9 -7 21.5z" />
<glyph unicode="&#xdb;" d="M0 393v2v15v4v370v9v753q0 12 9.5 21.5t21.5 9.5t21 -9.5t9 -21.5v-684l705 707q16 12 35 6q18 -11 18 -29v-1136q0 -124 -69 -230q-68 -100 -181 -147q-81 -33 -159 -33q-123 0 -230 70q-100 68 -147 180q-30 76 -33 143zM61 395q3 -97 60 -180q58 -86 153 -127 q69 -27 136 -27q105 0 194 60q86 58 127 153q27 69 27 136v1063l-697 -697v-381zM182.5 1791q1.5 13 10.5 21l198 166q7 8 18.5 8t20.5 -8l197 -166q9 -8 10 -21t-6 -22q-8 -9 -21 -10t-22 6l-178 150l-177 -150q-24 -17 -45 4q-7 9 -5.5 22z" />
<glyph unicode="&#xdc;" d="M0 393v2v15v4v370v9v753q0 12 9.5 21.5t21.5 9.5t21 -9.5t9 -21.5v-684l705 707q16 12 35 6q18 -11 18 -29v-1136q0 -124 -69 -230q-68 -100 -181 -147q-81 -33 -159 -33q-123 0 -230 70q-100 68 -147 180q-30 76 -33 143zM61 395q3 -97 60 -180q58 -86 153 -127 q69 -27 136 -27q105 0 194 60q86 58 127 153q27 69 27 136v1063l-697 -697v-381zM82 1927q0 13 2 19q6 12 8 14q7 12 27 22q15 5 22 5q3 0 9.5 -1t9.5 -1q10 -5 14 -9q12 -7 23 -26q4 -12 4 -23q0 -12 -2 -18q-6 -12 -9 -15q-10 -17 -26 -22q-12 -4 -23 -4q-12 0 -18 2 q-12 6 -14 8q-14 8 -23 27q-4 12 -4 22zM614 1927q0 13 2 19q5 10 9 14q7 12 24 22q20 5 25 5q3 0 8.5 -1t7.5 -1q12 -4 17 -9q13 -8 20 -26q6 -9 6 -23q0 -6 -4 -18q0 -3 -6 -15q-9 -15 -27 -22q-12 -4 -22 -4q-13 0 -19 2q-8 3 -16 8q-16 12 -21 27q-4 12 -4 22z" />
<glyph unicode="&#xdd;" horiz-adv-x="974" d="M4 1561q6 16 27 16h757q16 0 25 -12q10 -13 4 -27l-393 -1515q-3 -12 -14 -19t-23 -4q-12 5 -18.5 16t-3.5 23l192 743l-551 746q-11 18 -2 33zM92 1516l486 -658l172 658h-658zM296 1788.5q0 12.5 7 21.5l168 168q7 8 20.5 8t22.5 -8q9 -9 9 -22.5t-9 -22.5l-166 -166 q-9 -9 -22.5 -9t-22.5 9q-7 9 -7 21.5z" />
<glyph unicode="&#xe0;" horiz-adv-x="1732" d="M2 25q-2 11 4 20l758 1516q6 16 27 16q20 0 26 -16l758 -1516q6 -12 2.5 -24t-14.5 -17q-12 -6 -24 -2.5t-17 14.5l-365 727l-1108 -739q-21 -12 -37 4q-8 6 -10 17zM113 121l1017 678l-339 678zM678 1955.5q0 13.5 8 22.5q9 8 22.5 8t22.5 -8l166 -168q9 -9 9 -21.5 t-9 -21.5t-22 -9t-21 9l-168 166q-8 9 -8 22.5z" />
<glyph unicode="&#xe1;" horiz-adv-x="1732" d="M2 25q-2 11 4 20l758 1516q6 16 27 16q20 0 26 -16l758 -1516q6 -12 2.5 -24t-14.5 -17q-12 -6 -24 -2.5t-17 14.5l-365 727l-1108 -739q-21 -12 -37 4q-8 6 -10 17zM113 121l1017 678l-339 678zM676 1782.5q0 12.5 8 21.5l168 168q8 8 21 8t22 -8q9 -9 9 -22.5t-9 -22.5 l-166 -166q-9 -9 -22.5 -9t-22.5 9q-8 9 -8 21.5z" />
<glyph unicode="&#xe2;" horiz-adv-x="1732" d="M2 25q-2 11 4 20l758 1516q6 16 27 16q20 0 26 -16l758 -1516q6 -12 2.5 -24t-14.5 -17q-12 -6 -24 -2.5t-17 14.5l-365 727l-1108 -739q-21 -12 -37 4q-8 6 -10 17zM113 121l1017 678l-339 678zM559 1791q1 13 10 21l199 166q8 8 19 8t20 -8l197 -166q9 -8 10 -21 t-6 -22q-8 -9 -21 -10t-22 6l-179 150l-176 -150q-24 -17 -45 4q-7 9 -6 22z" />
<glyph unicode="&#xe3;" horiz-adv-x="1732" d="M2 25q-2 11 4 20l758 1516q6 16 27 16q20 0 26 -16l758 -1516q6 -12 2.5 -24t-14.5 -17q-12 -6 -24 -2.5t-17 14.5l-365 727l-1108 -739q-21 -12 -37 4q-8 6 -10 17zM113 121l1017 678l-339 678zM528 1823q0 35 17 69q18 34 49 56q10 7 41 20q21 6 43 6q36 0 70 -18 q30 -13 55 -49l35 -54l2 -2q11 -14 28 -24q18 -10 41 -10q19 0 27 4q4 1 22 10q19 13 29 33t10 41q0 15 -6 30q-3 12 3 23.5t18 15.5q11 5 23 -0.5t16 -17.5q8 -21 8 -51q0 -31 -17 -70q-21 -36 -49 -55q-19 -13 -41 -19q-21 -6 -43 -6q-30 0 -69 17q-39 24 -56 51q0 2 -2 2 l-30 47q-11 16 -33 31q-20 10 -41 10q-9 0 -25 -4q-10 -3 -24 -13q-21 -14 -29 -32q-10 -20 -10 -41q0 -16 6 -31q5 -12 -0.5 -24.5t-17.5 -16.5q-11 -5 -23 0.5t-16 17.5q-11 33 -11 54z" />
<glyph unicode="&#xe4;" horiz-adv-x="1732" d="M2 25q-2 11 4 20l758 1516q6 16 27 16q20 0 26 -16l758 -1516q6 -12 2.5 -24t-14.5 -17q-12 -6 -24 -2.5t-17 14.5l-365 727l-1108 -739q-21 -12 -37 4q-8 6 -10 17zM113 121l1017 678l-339 678zM461 1927q0 13 2 19q6 12 8 14q7 12 27 22q15 5 22 5q3 0 9.5 -1t9.5 -1 q10 -5 14 -9q10 -6 22 -26q5 -15 5 -23q0 -12 -2 -18q-6 -12 -9 -15q-10 -17 -26 -22q-12 -4 -23 -4q-12 0 -18 2q-14 7 -15 8q-12 7 -22 27q-4 12 -4 22zM993 1927q0 13 2 19q5 10 9 14q7 12 24 22q20 5 25 5q3 0 8.5 -1t7.5 -1q10 -3 16 -9q14 -8 21 -26q6 -9 6 -23 q0 -6 -4 -18q0 -3 -6 -15q-9 -15 -27 -22q-12 -4 -22 -4q-13 0 -19 2q-8 3 -16 8q-16 12 -21 27q-4 12 -4 22z" />
<glyph unicode="&#xe7;" horiz-adv-x="1368" d="M0 788q0 245 135 441q127 192 346 287q147 61 307 61q220 0 410 -115q11 -6 14 -19t-4 -24q-6 -10 -18.5 -13t-22.5 3q-175 107 -379 107q-225 0 -405 -125q-180 -120 -264 -320q-58 -135 -58 -283q0 -224 125 -407q121 -178 320 -262q135 -58 282 -58q204 0 379 107 q10 6 22.5 3t18.5 -13q7 -11 4 -24t-14 -19q-185 -115 -410 -115q-87 0 -170 18l-200 -243q-8 -9 -21 -10t-22 6q-9 9 -10 21.5t6 21.5l182 221q-121 41 -205 100q-192 127 -287 346q-61 147 -61 307z" />
<glyph unicode="&#xe8;" horiz-adv-x="974" d="M2 397q3 20 23 27l643 168l-643 166q-23 8 -23 30q0 10 7 18.5t16 10.5l643 168l-643 168q-20 7 -23 27q-3 19 18 30l756 363q12 6 24.5 2t16.5 -16q6 -10 2 -22.5t-16 -18.5l-682 -326l678 -176q22 -7 22 -31q0 -10 -6.5 -18.5t-15.5 -10.5l-643 -168l643 -167 q22 -7 22 -29q0 -24 -22 -31l-678 -176l682 -328q12 -4 16 -16.5t-2 -24.5q-4 -10 -16.5 -14.5t-24.5 0.5l-756 365q-21 11 -18 30zM300 1955.5q0 13.5 7 22.5q9 8 22.5 8t22.5 -8l166 -168q9 -9 9 -21.5t-9 -21.5t-22.5 -9t-20.5 9l-168 166q-7 9 -7 22.5z" />
<glyph unicode="&#xe9;" horiz-adv-x="974" d="M2 397q3 20 23 27l643 168l-643 166q-23 8 -23 30q0 10 7 18.5t16 10.5l643 168l-643 168q-20 7 -23 27q-3 19 18 30l756 363q12 6 24.5 2t16.5 -16q6 -10 2 -22.5t-16 -18.5l-682 -326l678 -176q22 -7 22 -31q0 -10 -6.5 -18.5t-15.5 -10.5l-643 -168l643 -167 q22 -7 22 -29q0 -24 -22 -31l-678 -176l682 -328q12 -4 16 -16.5t-2 -24.5q-4 -10 -16.5 -14.5t-24.5 0.5l-756 365q-21 11 -18 30zM294 1788.5q0 12.5 7 21.5l168 168q7 8 20.5 8t22.5 -8q9 -9 9 -22.5t-9 -22.5l-166 -166q-9 -9 -22.5 -9t-22.5 9q-7 9 -7 21.5z" />
<glyph unicode="&#xea;" horiz-adv-x="974" d="M2 397q3 20 23 27l643 168l-643 166q-23 8 -23 30q0 10 7 18.5t16 10.5l643 168l-643 168q-20 7 -23 27q-3 19 18 30l756 363q12 6 24.5 2t16.5 -16q6 -10 2 -22.5t-16 -18.5l-682 -326l678 -176q22 -7 22 -31q0 -10 -6.5 -18.5t-15.5 -10.5l-643 -168l643 -167 q22 -7 22 -29q0 -24 -22 -31l-678 -176l682 -328q12 -4 16 -16.5t-2 -24.5q-4 -10 -16.5 -14.5t-24.5 0.5l-756 365q-21 11 -18 30zM184.5 1791q1.5 13 10.5 21l198 166q7 8 18.5 8t20.5 -8l197 -166q9 -8 10 -21t-6 -22q-8 -9 -21 -10t-22 6l-178 150l-176 -150 q-24 -17 -46 4q-7 9 -5.5 22z" />
<glyph unicode="&#xeb;" horiz-adv-x="974" d="M2 397q3 20 23 27l643 168l-643 166q-23 8 -23 30q0 10 7 18.5t16 10.5l643 168l-643 168q-20 7 -23 27q-3 19 18 30l756 363q12 6 24.5 2t16.5 -16q6 -10 2 -22.5t-16 -18.5l-682 -326l678 -176q22 -7 22 -31q0 -10 -6.5 -18.5t-15.5 -10.5l-643 -168l643 -167 q22 -7 22 -29q0 -24 -22 -31l-678 -176l682 -328q12 -4 16 -16.5t-2 -24.5q-4 -10 -16.5 -14.5t-24.5 0.5l-756 365q-21 11 -18 30zM84 1927q0 13 2 19q6 12 8 14q7 12 27 22q15 5 22 5q3 0 9.5 -1t9.5 -1q10 -5 14 -9q12 -7 23 -26q4 -12 4 -23q0 -12 -2 -18q-7 -14 -8 -15 q-10 -16 -27 -22q-12 -4 -23 -4q-12 0 -18 2q-12 6 -14 8q-14 8 -23 27q-4 12 -4 22zM616 1927q0 13 2 19q5 10 9 14q7 12 24 22q20 5 25 5q3 0 8.5 -1t7.5 -1q12 -4 17 -9q13 -8 20 -26q6 -9 6 -23q0 -6 -4 -18q0 -3 -6 -15q-9 -15 -27 -22q-12 -4 -22 -4q-13 0 -19 2 q-8 3 -16 8q-15 11 -20 27q-5 15 -5 22z" />
<glyph unicode="&#xec;" horiz-adv-x="382" d="M0 1955.5q0 13.5 8 22.5q9 8 22.5 8t22.5 -8l166 -168q9 -9 9 -21.5t-9 -21.5t-22 -9t-21 9l-168 166q-8 9 -8 22.5zM82 31v1515q0 12 9.5 21.5t21.5 9.5t21 -9.5t9 -21.5v-1515q0 -12 -9 -21.5t-21 -9.5t-21.5 9.5t-9.5 21.5z" />
<glyph unicode="&#xed;" horiz-adv-x="382" d="M0 1788.5q0 12.5 8 21.5l168 168q8 8 21 8t22 -8q9 -9 9 -22.5t-9 -22.5l-166 -166q-9 -9 -22.5 -9t-22.5 9q-8 9 -8 21.5zM84 31v1515q0 12 9.5 21.5t21.5 9.5t21 -9.5t9 -21.5v-1515q0 -12 -9 -21.5t-21 -9.5t-21.5 9.5t-9.5 21.5z" />
<glyph unicode="&#xee;" horiz-adv-x="612" d="M2 1791q1 13 10 21l199 166q7 8 18.5 8t20.5 -8l196 -166q9 -8 10.5 -21t-5.5 -22q-8 -9 -21 -10t-22 6l-179 150l-176 -150q-24 -17 -45 4q-7 9 -6 22zM201 31v1515q0 12 9 21.5t21 9.5t21.5 -9.5t9.5 -21.5v-1515q0 -12 -9.5 -21.5t-21.5 -9.5t-21 9.5t-9 21.5z" />
<glyph unicode="&#xef;" horiz-adv-x="804" d="M0 1927q0 13 2 19q6 12 8 14q7 12 27 22q15 5 22 5q3 0 9.5 -1t9.5 -1q10 -5 14 -9q12 -7 23 -26q4 -12 4 -23q0 -12 -2 -18q-7 -14 -8 -15q-10 -16 -27 -22q-12 -4 -23 -4q-12 0 -18 2q-12 6 -14 8q-14 8 -23 27q-4 12 -4 22zM297 31v1515q0 12 9.5 21.5t21.5 9.5 t21 -9.5t9 -21.5v-1515q0 -12 -9 -21.5t-21 -9.5t-21.5 9.5t-9.5 21.5zM532 1927q0 10 3 19q6 12 8 14q7 12 24 22q20 5 25 5q3 0 8.5 -1t7.5 -1q12 -4 17 -9q13 -8 20 -26q6 -9 6 -23q0 -6 -4 -18q0 -3 -6 -15q-9 -15 -27 -22q-12 -4 -22 -4q-13 0 -19 2q-8 3 -16 8 q-15 11 -20 27q-5 15 -5 22z" />
<glyph unicode="&#xf1;" d="M0 31v1515q0 24 25 31q22 4 32 -16l701 -1401v1386q0 12 9 21.5t21 9.5t21.5 -9.5t9.5 -21.5v-1515v-2v-2v-2l-2 -2v-3v-2q-4 -4 -4 -8h-2v-2h-2v-2h-2h-2v-2h-2l-2 -2h-2q-2 0 -2 -2h-2h-2h-2h-3h-757q-11 0 -23 8q-8 12 -8 23zM61 61h678l-678 1354v-1354zM145 1833 q0 36 17 70q17 33 49 55q10 7 41 20q24 7 43 7q34 0 70 -19q30 -13 55 -49l35 -53l2 -2q13 -16 28 -25q17 -10 41 -10q19 0 27 4q4 1 22 10q19 13 29 33t10 41q0 16 -6 31q-3 12 3 23.5t18 15.5q11 5 23 -1t16 -18q8 -21 8 -51q0 -31 -17 -70q-21 -36 -49 -55 q-17 -11 -41 -18q-25 -7 -43 -7q-30 0 -69 17q-39 24 -56 51q0 2 -2 2l-30 47q-11 16 -33 31q-20 10 -41 10q-9 0 -25 -4q-12 -3 -24 -12q-21 -14 -29 -33q-10 -20 -10 -41q0 -16 6 -31q5 -12 -0.5 -24.5t-17.5 -16.5q-11 -5 -23 1t-16 18q-11 33 -11 53z" />
<glyph unicode="&#xf2;" horiz-adv-x="1730" d="M0 788q0 245 135 441q127 192 346 287q147 61 307 61q245 0 441 -135q197 -130 287 -346q61 -147 61 -308q0 -244 -135 -440q-130 -197 -346 -287q-147 -61 -308 -61q-244 0 -440 135q-192 127 -287 346q-61 147 -61 307zM61 788q0 -224 125 -407q121 -178 320 -262 q135 -58 282 -58q226 0 406 125q180 120 264 320q58 135 58 282q0 226 -125 406q-120 180 -320 264q-135 58 -283 58q-225 0 -405 -125q-180 -120 -264 -320q-58 -135 -58 -283zM674 1955.5q0 13.5 8 22.5q9 8 22.5 8t22.5 -8l166 -168q9 -9 9 -21.5t-9 -21.5t-22 -9t-21 9 l-168 166q-8 9 -8 22.5z" />
<glyph unicode="&#xf3;" horiz-adv-x="1730" d="M0 788q0 245 135 441q127 192 346 287q147 61 307 61q245 0 441 -135q197 -130 287 -346q61 -147 61 -308q0 -244 -135 -440q-130 -197 -346 -287q-147 -61 -308 -61q-244 0 -440 135q-192 127 -287 346q-61 147 -61 307zM61 788q0 -224 125 -407q121 -178 320 -262 q135 -58 282 -58q226 0 406 125q180 120 264 320q58 135 58 282q0 226 -125 406q-120 180 -320 264q-135 58 -283 58q-225 0 -405 -125q-180 -120 -264 -320q-58 -135 -58 -283zM672 1788.5q0 12.5 8 21.5l168 168q8 8 21 8t22 -8q9 -9 9 -22.5t-9 -22.5l-166 -166 q-9 -9 -22.5 -9t-22.5 9q-8 9 -8 21.5z" />
<glyph unicode="&#xf4;" horiz-adv-x="1730" d="M0 788q0 245 135 441q127 192 346 287q147 61 307 61q245 0 441 -135q197 -130 287 -346q61 -147 61 -308q0 -244 -135 -440q-130 -197 -346 -287q-147 -61 -308 -61q-244 0 -440 135q-192 127 -287 346q-61 147 -61 307zM61 788q0 -224 125 -407q121 -178 320 -262 q135 -58 282 -58q226 0 406 125q180 120 264 320q58 135 58 282q0 226 -125 406q-120 180 -320 264q-135 58 -283 58q-225 0 -405 -125q-180 -120 -264 -320q-58 -135 -58 -283zM561 1791q1 13 10 21l199 166q8 8 19 8t20 -8l197 -166q9 -8 10 -21t-6 -22q-8 -9 -21 -10 t-22 6l-179 150l-176 -150q-24 -17 -45 4q-7 9 -6 22z" />
<glyph unicode="&#xf5;" horiz-adv-x="1730" d="M0 788q0 245 135 441q127 192 346 287q147 61 307 61q245 0 441 -135q197 -130 287 -346q61 -147 61 -308q0 -244 -135 -440q-130 -197 -346 -287q-147 -61 -308 -61q-244 0 -440 135q-192 127 -287 346q-61 147 -61 307zM61 788q0 -224 125 -407q121 -178 320 -262 q135 -58 282 -58q226 0 406 125q180 120 264 320q58 135 58 282q0 226 -125 406q-120 180 -320 264q-135 58 -283 58q-225 0 -405 -125q-180 -120 -264 -320q-58 -135 -58 -283zM524 1833q0 36 17 70q17 33 49 55q10 7 41 20q24 7 43 7q33 0 69 -19q31 -14 56 -49l35 -53 l2 -2q13 -16 28 -25q18 -10 41 -10q19 0 27 4q4 1 22 10q19 13 29 33t10 41q0 16 -6 31q-3 12 3 23.5t18 15.5q11 5 23 -1t16 -18q8 -21 8 -51q0 -31 -17 -70q-21 -36 -49 -55q-17 -11 -41 -18t-43 -7q-30 0 -69 17q-39 24 -56 51q0 2 -2 2l-30 47q-11 16 -33 31 q-20 10 -41 10q-9 0 -25 -4q-12 -3 -24 -12q-21 -14 -29 -33q-10 -20 -10 -41q0 -16 6 -31q4 -12 -1.5 -24t-17.5 -17q-11 -5 -22 1t-16 18q-11 33 -11 53z" />
<glyph unicode="&#xf6;" horiz-adv-x="1730" d="M0 788q0 245 135 441q127 192 346 287q147 61 307 61q245 0 441 -135q197 -130 287 -346q61 -147 61 -308q0 -244 -135 -440q-130 -197 -346 -287q-147 -61 -308 -61q-244 0 -440 135q-192 127 -287 346q-61 147 -61 307zM61 788q0 -224 125 -407q121 -178 320 -262 q135 -58 282 -58q226 0 406 125q180 120 264 320q58 135 58 282q0 226 -125 406q-120 180 -320 264q-135 58 -283 58q-225 0 -405 -125q-180 -120 -264 -320q-58 -135 -58 -283zM463 1927q0 13 2 19q6 12 8 14q7 12 27 22q15 5 22 5q3 0 9.5 -1t9.5 -1q10 -5 14 -9 q12 -7 23 -26q4 -12 4 -23q0 -12 -2 -18q-6 -12 -9 -15q-10 -17 -26 -22q-12 -4 -23 -4q-12 0 -18 2q-14 7 -15 8q-12 7 -22 27q-4 12 -4 22zM995 1927q0 13 2 19q5 10 9 14q7 12 24 22q20 5 25 5q3 0 8.5 -1t7.5 -1q10 -3 16 -9q14 -8 21 -26q6 -9 6 -23q0 -6 -4 -18 q0 -3 -6 -15q-9 -15 -27 -22q-12 -4 -22 -4q-13 0 -19 2q-8 3 -16 8q-16 12 -21 27q-4 12 -4 22z" />
<glyph unicode="&#xf7;" d="M0 788q0 12 9.5 21.5t21.5 9.5h757q13 0 22 -9.5t9 -21.5t-9 -21t-22 -9h-757q-12 0 -21.5 9t-9.5 21zM350 522q0 7 4 19q1 2 3 7t3 7q14 18 27 23q16 4 23 4q12 0 18 -2q5 -2 16 -9q16 -12 21 -26q4 -6 4 -23q0 -12 -2 -18q-7 -14 -8 -15q-7 -11 -25 -22q-16 -4 -24 -4 q-3 0 -8.5 1t-8.5 1q-3 1 -8 4t-8 4q-15 11 -21 27q-6 9 -6 22zM350 1055q0 8 4 16q4 12 6 16q12 15 27 21q12 6 23 6q6 0 18 -4q4 0 9 -3t7 -3q15 -11 21 -27q4 -6 4 -22q0 -13 -2 -19q-3 -9 -8 -14q-10 -17 -25 -23q-16 -4 -24 -4q-11 0 -17 2q-5 2 -16 9q-16 12 -21 26 q-6 9 -6 23z" />
<glyph unicode="&#xf9;" d="M0 393v2v15v4v370v9v753q0 12 9.5 21.5t21.5 9.5t21 -9.5t9 -21.5v-684l705 707q16 12 35 6q18 -11 18 -29v-1136q0 -124 -69 -230q-68 -100 -181 -147q-81 -33 -159 -33q-123 0 -230 70q-100 68 -147 180q-30 76 -33 143zM61 395q3 -97 60 -180q58 -86 153 -127 q69 -27 136 -27q105 0 194 60q86 58 127 153q27 69 27 136v1063l-697 -697v-381zM296 1955.5q0 13.5 7 22.5q9 8 22.5 8t22.5 -8l166 -168q9 -9 9 -21.5t-9 -21.5t-22.5 -9t-20.5 9l-168 166q-7 9 -7 22.5z" />
<glyph unicode="&#xfa;" d="M0 393v2v15v4v370v9v753q0 12 9.5 21.5t21.5 9.5t21 -9.5t9 -21.5v-684l705 707q16 12 35 6q18 -11 18 -29v-1136q0 -124 -69 -230q-68 -100 -181 -147q-81 -33 -159 -33q-123 0 -230 70q-100 68 -147 180q-30 76 -33 143zM61 395q3 -97 60 -180q58 -86 153 -127 q69 -27 136 -27q105 0 194 60q86 58 127 153q27 69 27 136v1063l-697 -697v-381zM296 1788.5q0 12.5 7 21.5l168 168q7 8 20.5 8t22.5 -8q9 -9 9 -22.5t-9 -22.5l-166 -166q-9 -9 -22.5 -9t-22.5 9q-7 9 -7 21.5z" />
<glyph unicode="&#xfb;" d="M0 393v2v15v4v370v9v753q0 12 9.5 21.5t21.5 9.5t21 -9.5t9 -21.5v-684l705 707q16 12 35 6q18 -11 18 -29v-1136q0 -124 -69 -230q-68 -100 -181 -147q-81 -33 -159 -33q-123 0 -230 70q-100 68 -147 180q-30 76 -33 143zM61 395q3 -97 60 -180q58 -86 153 -127 q69 -27 136 -27q105 0 194 60q86 58 127 153q27 69 27 136v1063l-697 -697v-381zM182.5 1791q1.5 13 10.5 21l198 166q7 8 18.5 8t20.5 -8l197 -166q9 -8 10 -21t-6 -22q-8 -9 -21 -10t-22 6l-178 150l-177 -150q-24 -17 -45 4q-7 9 -5.5 22z" />
<glyph unicode="&#xfc;" d="M0 393v2v15v4v370v9v753q0 12 9.5 21.5t21.5 9.5t21 -9.5t9 -21.5v-684l705 707q16 12 35 6q18 -11 18 -29v-1136q0 -124 -69 -230q-68 -100 -181 -147q-81 -33 -159 -33q-123 0 -230 70q-100 68 -147 180q-30 76 -33 143zM61 395q3 -97 60 -180q58 -86 153 -127 q69 -27 136 -27q105 0 194 60q86 58 127 153q27 69 27 136v1063l-697 -697v-381zM82 1927q0 13 2 19q6 12 8 14q7 12 27 22q15 5 22 5q3 0 9.5 -1t9.5 -1q10 -5 14 -9q12 -7 23 -26q4 -12 4 -23q0 -12 -2 -18q-6 -12 -9 -15q-10 -17 -26 -22q-12 -4 -23 -4q-12 0 -18 2 q-12 6 -14 8q-14 8 -23 27q-4 12 -4 22zM614 1927q0 13 2 19q5 10 9 14q7 12 24 22q20 5 25 5q3 0 8.5 -1t7.5 -1q12 -4 17 -9q13 -8 20 -26q6 -9 6 -23q0 -6 -4 -18q0 -3 -6 -15q-9 -15 -27 -22q-12 -4 -22 -4q-13 0 -19 2q-8 3 -16 8q-16 12 -21 27q-4 12 -4 22z" />
<glyph unicode="&#xfd;" horiz-adv-x="974" d="M4 1561q6 16 27 16h757q16 0 25 -12q10 -13 4 -27l-393 -1515q-3 -12 -14 -19t-23 -4q-12 5 -18.5 16t-3.5 23l192 743l-551 746q-11 18 -2 33zM92 1516l486 -658l172 658h-658zM296 1788.5q0 12.5 7 21.5l168 168q7 8 20.5 8t22.5 -8q9 -9 9 -22.5t-9 -22.5l-166 -166 q-9 -9 -22.5 -9t-22.5 9q-7 9 -7 21.5z" />
<glyph unicode="&#xff;" horiz-adv-x="837" d="M4 1561q6 16 27 16h757q16 0 25 -12q10 -13 4 -27l-393 -1515q-3 -12 -14 -19t-23 -4q-12 5 -18.5 16t-3.5 23l192 743l-551 746q-11 18 -2 33zM92 1516l486 -658l172 658h-658zM92 1927q0 13 2 19q6 12 8 14q7 12 27 22q15 5 23 5q3 0 9 -1t9 -1q10 -5 14 -9 q12 -7 23 -26q4 -12 4 -23q0 -12 -2 -18q-7 -14 -8 -15q-10 -16 -27 -22q-12 -4 -22 -4q-13 0 -19 2q-12 6 -14 8q-14 8 -23 27q-4 12 -4 22zM625 1927q0 13 2 19q6 12 8 14q7 12 24 22q20 5 25 5q3 0 8.5 -1t7.5 -1q12 -4 17 -9q13 -8 20 -26q6 -9 6 -23q0 -6 -4 -18 q0 -3 -6 -15q-9 -15 -26 -22q-12 -4 -23 -4q-12 0 -18 2q-10 3 -17 8q-15 11 -20 27q-4 12 -4 22z" />
<glyph unicode="&#x178;" horiz-adv-x="827" d="M4 1561q6 16 27 16h757q16 0 25 -12q10 -13 4 -27l-393 -1515q-3 -12 -14 -19t-23 -4q-12 5 -18.5 16t-3.5 23l192 743l-551 746q-11 18 -2 33zM82 1927q0 13 2 19q6 12 8 14q7 12 27 22q15 5 22 5q3 0 9.5 -1t9.5 -1q10 -5 14 -9q12 -7 23 -26q4 -12 4 -23q0 -12 -2 -18 q-6 -12 -9 -15q-10 -17 -26 -22q-12 -4 -23 -4q-12 0 -18 2q-12 6 -14 8q-14 8 -23 27q-4 12 -4 22zM92 1516l486 -658l172 658h-658zM614 1927q0 13 2 19q5 10 9 14q7 12 24 22q20 5 25 5q3 0 8.5 -1t7.5 -1q12 -4 17 -9q13 -8 20 -26q6 -9 6 -23q0 -6 -4 -18q0 -3 -6 -15 q-9 -15 -27 -22q-12 -4 -22 -4q-13 0 -19 2q-8 3 -16 8q-16 12 -21 27q-4 12 -4 22z" />
<glyph unicode="&#x2c6;" horiz-adv-x="612" d="M2 1382q1 13 10 21l199 166q7 7 18.5 7t20.5 -7l196 -166q9 -8 10.5 -21t-5.5 -22q-8 -9 -21 -10t-22 6l-179 149l-176 -149q-24 -17 -45 4q-7 9 -6 22z" />
<glyph unicode="&#x2dc;" horiz-adv-x="684" d="M0 1423q0 38 16 70t50 55q16 11 40 21q21 6 44 6q33 0 69 -19q30 -13 55 -49l35 -53l2 -2q12 -15 29 -25t41 -10q19 0 27 4l22 11q20 13 29 32q10 20 10 41q0 16 -6 31q-3 12 2.5 23.5t17.5 15.5q11 5 23 -1t16 -18q8 -21 8 -51q0 -32 -16 -69q-22 -37 -49 -56 q-16 -11 -41 -18q-21 -6 -43 -6q-33 0 -70 16q-38 23 -55 51q0 2 -2 2l-31 48q-10 14 -33 30q-20 10 -40 10q-9 0 -25 -4q-13 -3 -25 -12q-19 -13 -28 -33q-11 -22 -11 -41q0 -13 7 -30q4 -12 -1.5 -24t-17.5 -17q-11 -5 -23 0.5t-16 17.5q-10 30 -10 53z" />
<glyph unicode="&#x2000;" horiz-adv-x="993" />
<glyph unicode="&#x2001;" horiz-adv-x="1987" />
<glyph unicode="&#x2002;" horiz-adv-x="993" />
<glyph unicode="&#x2003;" horiz-adv-x="1987" />
<glyph unicode="&#x2004;" horiz-adv-x="662" />
<glyph unicode="&#x2005;" horiz-adv-x="496" />
<glyph unicode="&#x2006;" horiz-adv-x="331" />
<glyph unicode="&#x2007;" horiz-adv-x="331" />
<glyph unicode="&#x2008;" horiz-adv-x="248" />
<glyph unicode="&#x2009;" horiz-adv-x="397" />
<glyph unicode="&#x200a;" horiz-adv-x="110" />
<glyph unicode="&#x2010;" horiz-adv-x="577" d="M0 788q0 12 9.5 21.5t21.5 9.5h362q13 0 22 -9.5t9 -21.5t-9 -21t-22 -9h-362q-12 0 -21.5 9t-9.5 21z" />
<glyph unicode="&#x2011;" horiz-adv-x="577" d="M0 788q0 12 9.5 21.5t21.5 9.5h362q13 0 22 -9.5t9 -21.5t-9 -21t-22 -9h-362q-12 0 -21.5 9t-9.5 21z" />
<glyph unicode="&#x2012;" horiz-adv-x="577" d="M0 788q0 12 9.5 21.5t21.5 9.5h362q13 0 22 -9.5t9 -21.5t-9 -21t-22 -9h-362q-12 0 -21.5 9t-9.5 21z" />
<glyph unicode="&#x2013;" d="M0 788q0 12 9.5 21.5t21.5 9.5h757q12 0 21.5 -9.5t9.5 -21.5t-9.5 -21t-21.5 -9h-757q-12 0 -21.5 9t-9.5 21z" />
<glyph unicode="&#x2014;" horiz-adv-x="1366" d="M0 788q0 12 9.5 21.5t21.5 9.5h1151q13 0 21.5 -9.5t8.5 -21.5t-8.5 -21t-21.5 -9h-1151q-12 0 -21.5 9t-9.5 21z" />
<glyph unicode="&#x2018;" horiz-adv-x="382" d="M2.5 1557q4.5 12 15.5 18q12 5 24.5 0.5t16.5 -16.5l166 -363q6 -12 1.5 -24t-15.5 -17q-12 -6 -24 -1.5t-17 15.5l-166 365q-6 11 -1.5 23z" />
<glyph unicode="&#x2019;" horiz-adv-x="382" d="M2.5 1172q-4.5 12 1.5 24l166 363q4 12 16.5 16.5t24.5 -0.5q11 -6 15.5 -18t-1.5 -23l-166 -365q-5 -11 -17 -15.5t-24 1.5q-11 5 -15.5 17z" />
<glyph unicode="&#x201a;" horiz-adv-x="382" d="M2.5 22q-4.5 12 1.5 23l166 365q5 11 17 15.5t24 -1.5q11 -5 15.5 -17t-1.5 -24l-166 -363q-4 -12 -16.5 -16.5t-24.5 0.5q-11 6 -15.5 18z" />
<glyph unicode="&#x201c;" horiz-adv-x="575" d="M2.5 1557q4.5 12 15.5 18q12 5 24.5 0.5t16.5 -16.5l166 -363q6 -12 1.5 -24t-15.5 -17q-12 -6 -24 -1.5t-17 15.5l-166 365q-6 11 -1.5 23zM195.5 1557q4.5 12 15.5 18q12 5 24.5 0.5t16.5 -16.5l166 -363q6 -12 1 -24t-16 -17q-12 -6 -24 -1.5t-17 15.5l-165 365 q-6 11 -1.5 23z" />
<glyph unicode="&#x201d;" horiz-adv-x="575" d="M2.5 1172q-4.5 12 1.5 24l166 363q4 12 16.5 16.5t24.5 -0.5q11 -6 15.5 -18t-1.5 -23l-166 -365q-5 -11 -17 -15.5t-24 1.5q-11 5 -15.5 17zM195.5 1172q-4.5 12 1.5 24l165 363q4 12 16.5 16.5t24.5 -0.5q11 -6 16 -18t-1 -23l-166 -365q-5 -11 -17 -15.5t-24 1.5 q-11 5 -15.5 17z" />
<glyph unicode="&#x201e;" horiz-adv-x="575" d="M2.5 22q-4.5 12 1.5 23l166 365q5 11 17 15.5t24 -1.5q11 -5 15.5 -17t-1.5 -24l-166 -363q-4 -12 -16.5 -16.5t-24.5 0.5q-11 6 -15.5 18zM195.5 22q-4.5 12 1.5 23l165 365q5 11 17 15.5t24 -1.5q11 -5 16 -17t-1 -24l-166 -363q-4 -12 -16.5 -16.5t-24.5 0.5 q-11 6 -15.5 18z" />
<glyph unicode="&#x2022;" horiz-adv-x="411" d="M0 788q0 21 6 39q7 20 17 33q24 34 57 47q26 11 49 11q18 0 39 -7q22 -7 33 -16q31 -19 47 -55q10 -20 10 -52q0 -20 -6 -38q-3 -16 -16 -33q-18 -31 -56 -47q-29 -11 -51 -11q-18 0 -39 7q-22 7 -33 16q-31 19 -47 55q-10 27 -10 51z" />
<glyph unicode="&#x2026;" horiz-adv-x="636" d="M0 59q0 7 4 19q1 2 3 7t3 7q10 13 27 23q16 4 22 4q3 0 9.5 -1t9.5 -1q8 -3 16 -8q15 -11 21 -27q4 -6 4 -23q0 -12 -2 -18q-6 -12 -8 -14q-10 -17 -25 -23q-16 -4 -25 -4q-10 0 -16 2q-8 3 -16 8q-16 12 -21 27q-6 9 -6 22zM168 59q0 13 2 19q6 12 8 14q7 13 25 23 q16 4 24 4q3 0 9 -1t8 -1q12 -4 16 -8q15 -11 21 -27q6 -9 6 -23q0 -6 -4 -18l-7 -14q-10 -17 -26 -23q-16 -4 -23 -4q-12 0 -18 2q-8 3 -16 8q-16 12 -21 27q-4 6 -4 22zM365 59q0 13 2 19q6 12 8 14q9 14 26 23q12 4 23 4q3 0 9 -1t9 -1q14 -7 15 -8q9 -5 22 -27 q4 -12 4 -23q0 -3 -1 -9t-1 -9q-1 -2 -4 -7t-4 -7q-10 -16 -27 -23q-12 -4 -22 -4q-12 0 -18 2q-14 7 -15 8q-16 10 -22 27q-4 12 -4 22z" />
<glyph unicode="&#x202f;" horiz-adv-x="397" />
<glyph unicode="&#x205f;" horiz-adv-x="496" />
<glyph unicode="&#x20ac;" horiz-adv-x="1171" d="M0 592q0 12 9.5 21.5t21.5 9.5h159q-18 79 -18 165t18 166h-159q-12 0 -21.5 9.5t-9.5 21.5t9.5 21.5t21.5 9.5h176q0 1 1 3.5t1 4.5q39 116 102 205q136 197 361 287q150 61 315 61q13 0 22 -9.5t9 -21.5t-9 -21t-22 -9q-233 0 -422 -125q-186 -122 -272 -320 q-11 -24 -21 -55h519q13 0 21.5 -9.5t8.5 -21.5t-8.5 -21.5t-21.5 -9.5h-537q-21 -80 -21 -166t21 -165h537q13 0 21.5 -9.5t8.5 -21.5q0 -14 -8.5 -22.5t-21.5 -8.5h-519q31 -98 90 -178q126 -180 332 -264q141 -58 293 -58q13 0 22 -9t9 -21t-9 -21.5t-22 -9.5 q-253 0 -455 135q-200 128 -294 346q-24 53 -31 80h-176q-12 0 -21.5 9t-9.5 22z" />
<glyph unicode="&#x25fc;" horiz-adv-x="1576" d="M0 0v1577h1577v-1577h-1577z" />
</font>
</defs>
</svg>
