<?xml version="1.0" standalone="no"?>
<!DOCTYPE svg PUBLIC "-//W3C//DTD SVG 1.1//EN" "http://www.w3.org/Graphics/SVG/1.1/DTD/svg11.dtd" >
<svg xmlns="http://www.w3.org/2000/svg">
<metadata></metadata>
<defs>
<font id="tetraregular" horiz-adv-x="735" >
<font-face units-per-em="2048" ascent="1536" descent="-512" />
<missing-glyph horiz-adv-x="677" />
<glyph horiz-adv-x="2048" />
<glyph horiz-adv-x="2048" />
<glyph unicode="&#xd;" horiz-adv-x="2048" />
<glyph unicode=" "  horiz-adv-x="677" />
<glyph unicode="&#x09;" horiz-adv-x="677" />
<glyph unicode="&#xa0;" horiz-adv-x="677" />
<glyph unicode="!" horiz-adv-x="335" d="M0 1411h254l-55 -1141h-170zM33 90q0 35 25.5 60.5t60.5 25.5t60.5 -25.5t25.5 -60.5q0 -36 -25 -61t-61 -25t-61 25t-25 61z" />
<glyph unicode="&#x22;" horiz-adv-x="292" d="M0 1214l16 197h101l-35 -197h-82zM117 1214l16 197h100l-34 -197h-82z" />
<glyph unicode="#" horiz-adv-x="804" d="M-150 197v170h166v151l-75 8l-80 11l20 168l80 -9l55 -8v723h240q193 0 330 -136.5t137 -328.5q0 -127 -62.5 -234.5t-170 -170t-234.5 -62.5q-38 0 -72 6v-118h404v-168l-404 -2v-197h-168v197h-166zM184 655q31 -8 72 -8q60 0 109 21l-181 274v-287zM193 1237l307 -465 q55 77 55 174q0 123 -88 210t-211 87q-33 0 -63 -6z" />
<glyph unicode="$" horiz-adv-x="849" d="M0 1020v24q3 113 89.5 219t229.5 128l3 32v123h167v-123v-43q51 -13 97.5 -39.5t75.5 -52.5t53 -55.5t32.5 -43t12.5 -20.5l-150 -77q-3 5 -10 16t-27.5 33.5t-44.5 41t-63 32.5t-82 14q-90 0 -152 -58q-8 -10 -20 -26q-33 -41 -41 -88q-2 -8 -2 -25q5 -72 80 -136.5 t213 -113.5q240 -83 309 -211q48 -73 39 -219q0 -9 -4 -33v-8l-2 -4q-23 -105 -105 -192.5t-209 -106.5v-110v-48h-170l3 48v116q-170 44 -273 213l150 78q3 -5 10 -16t27.5 -33.5t44.5 -41t63 -32.5t82 -14q57 0 99 17t65 46.5t35 59t16 63.5q0 9 2 11q-2 6 -2 18v25 q0 20 -0.5 30.5t-6 29t-16 32.5t-31 32t-50.5 35q-12 3 -79 17t-110 30q-336 119 -348 406z" />
<glyph unicode="%" horiz-adv-x="993" d="M0 0l788 1411l144 -80l-789 -1411zM74 1071l114 238l109 -238l-109 -190zM659 315l117 238l109 -238l-109 -192z" />
<glyph unicode="&#x26;" horiz-adv-x="995" d="M0 424q0 95 39 178t108 143q-54 88 -78.5 156t-21.5 158q4 42 8 61q28 131 133 213q104 81 236 78q154 0 261.5 -107.5t107.5 -261.5q0 -152 -107.5 -260t-261.5 -108h-16q100 -134 213 -238q18 -18 36 -30q16 108 -30 184l147 92q72 -118 60 -258h2q0 -61 -19 -123 q16 -7 47 -22t45 -21l-71 -158q-43 17 -103 50q-58 -69 -138.5 -109t-172.5 -41v-2h-6h-6v2q-113 3 -207.5 60.5t-149.5 154t-55 209.5zM174 424q0 -102 71 -175.5t173 -76.5q94 3 164 70q-170 130 -334 354l-6 -4v2q-68 -71 -68 -170zM221 1051q-1 -59 16 -102t64 -120 q62 19 123 19q81 0 137.5 57t56.5 137q0 82 -56 138.5t-138 56.5q-71 3 -127.5 -40.5t-71.5 -113.5q-1 -5 -2 -15.5t-2 -16.5z" />
<glyph unicode="'" horiz-adv-x="395" d="M4 655l158 326l149 -326l-149 -260z" />
<glyph unicode="(" horiz-adv-x="432" d="M4 543v360q16 219 172 363q77 74 186 116v-204q-75 -45 -121.5 -119.5t-52.5 -165.5v-350q0 -97 47.5 -179.5t126.5 -130.5v-204q-75 27 -141 77q-23 16 -57 50q-77 78 -118.5 178.5t-41.5 208.5z" />
<glyph unicode=")" horiz-adv-x="432" d="M4 29v204q79 48 126.5 130.5t47.5 179.5v350q-6 91 -52.5 165.5t-121.5 119.5v204q109 -42 186 -116q156 -144 172 -363v-360q0 -109 -41 -209t-118 -178q-31 -31 -58 -50q-66 -50 -141 -77z" />
<glyph unicode="*" horiz-adv-x="395" d="M4 655l158 326l149 -326l-149 -260z" />
<glyph unicode="+" horiz-adv-x="749" d="M4 580v168h254v245h168v-245h256v-168h-256v-265h-168v265h-254z" />
<glyph unicode="," horiz-adv-x="239" d="M0 -90l16 196h101l-35 -196h-82z" />
<glyph unicode="-" d="M4 580v168h678v-168h-678z" />
<glyph unicode="." horiz-adv-x="215" d="M0 57q0 25 17 42.5t42 17.5q23 0 40.5 -17.5t17.5 -42.5q0 -23 -17.5 -40t-40.5 -17q-25 0 -42 17t-17 40z" />
<glyph unicode="/" horiz-adv-x="905" d="M-70 37l789 1411l143 -80l-788 -1411z" />
<glyph unicode="0" horiz-adv-x="1173" d="M0 539v360q16 219 172 363q75 72 172 110.5t203 38.5q104 0 201.5 -38.5t173.5 -110.5q75 -71 119.5 -165t50.5 -198q0 -8 1 -183.5t1 -176.5q0 -109 -42 -209t-120 -178q-77 -77 -177 -118.5t-208 -41.5q-110 0 -210 41.5t-177 118.5q-77 78 -118.5 178.5t-41.5 208.5z M184 539q0 -150 106.5 -256.5t256.5 -106.5q149 0 255.5 107t106.5 256q0 13 -1 175t-1 175q-9 142 -113 240t-247 98t-248.5 -98t-114.5 -240v-350z" />
<glyph unicode="1" horiz-adv-x="788" d="M0 754l621 907v-1661h-168v1122l-318 -460z" />
<glyph unicode="2" horiz-adv-x="929" d="M0 1208q7 11 15.5 22.5t39 44t62 57t81.5 47.5t101 28q141 14 235 -22.5t148 -96.5q65 -69 85.5 -156t8.5 -163q-6 -32 -47 -122t-79 -163l-38 -74l-241 -444h475v-166h-760l336 610q174 307 188 389q8 41 -4.5 91t-46.5 86q-77 80 -244 65q-54 -5 -103 -46.5t-71 -78.5z " />
<glyph unicode="3" horiz-adv-x="915" d="M-18 1202q3 6 15 22.5t40 46t61 56.5t82.5 49t100.5 27q141 14 235 -22.5t148 -96.5q64 -69 85 -157t9 -162q-20 -105 -72 -166q-2 -5 -8 -11q2 -2 4 -2q47 -41 78 -98q31 -60 44.5 -135t1 -165.5t-57.5 -166.5q-130 -216 -439 -221h-162v168h158q219 3 299 139 q40 78 40 160.5t-32 142.5q-38 69 -106 78l-55 -2v178l49 4q29 6 55 35t37 90q7 42 -5.5 91t-45.5 85q-78 84 -244 66q-54 -5 -102.5 -46t-71.5 -77z" />
<glyph unicode="4" horiz-adv-x="1128" d="M0 389l815 1192l53 76v-1104h138v-164h-138v-391h-168v391h-700zM311 553h389v567l-385 -561z" />
<glyph unicode="5" horiz-adv-x="944" d="M4 479l184 -20q-15 -88 25 -170q17 -33 43 -62q64 -43 147 -43q116 0 198.5 82t82.5 197t-82.5 197.5t-198.5 82.5q-65 0 -127 -32h-4h-168v542v168h637v-168h-469v-344h4q65 19 127 19q194 0 328 -137q137 -134 137 -328q0 -191 -137 -328q-132 -135 -328 -135 q-141 0 -262 82h2q-8 4 -10 6q-47 50 -84 119q-64 128 -45 272z" />
<glyph unicode="6" horiz-adv-x="1116" d="M0 547q0 132 61 254l547 1085l191 -82l-398 -731q79 21 146 21q109 0 209 -42t176 -120q78 -76 120 -176t42 -209q0 -110 -42 -210t-120 -177q-77 -77 -177 -118.5t-208 -41.5q-110 0 -210 41.5t-177 118.5t-118.5 177t-41.5 210zM184 547q0 -151 106 -257t257 -106 q149 0 255.5 106t106.5 257q0 149 -106.5 255.5t-255.5 106.5q-151 0 -257 -106.5t-106 -255.5z" />
<glyph unicode="7" horiz-adv-x="948" d="M0 1247v164h766h33h151l-2 -2h2l-757 -1481l-148 76l637 1243h-682z" />
<glyph unicode="8" horiz-adv-x="874" d="M0 436q0 114 54.5 210.5t146.5 154.5q-56 48 -87.5 116.5t-31.5 145.5q0 145 101.5 246.5t246.5 101.5q143 0 245.5 -102t102.5 -246q0 -76 -31 -144t-85 -116q94 -58 149 -155.5t55 -211.5q0 -180 -127 -307t-307 -127q-179 0 -305.5 127t-126.5 307zM184 436 q0 -103 72.5 -176.5t175.5 -73.5t176.5 73.5t73.5 176.5t-73.5 175.5t-176.5 72.5t-175.5 -72.5t-72.5 -175.5zM266 1063q0 -67 48 -115.5t116 -48.5t116 48.5t48 115.5t-48 115.5t-116 48.5t-116 -48.5t-48 -115.5z" />
<glyph unicode="9" horiz-adv-x="1142" d="M0 864q0 108 41.5 208.5t118.5 178.5q77 77 177 118.5t210 41.5q108 0 208 -41.5t177 -118.5q78 -78 120 -178t42 -209q0 -132 -64 -254l-545 -1085l-190 82l397 731q-82 -21 -145 -21q-110 0 -210 41.5t-177 118.5q-77 78 -118.5 178.5t-41.5 208.5zM184 864 q0 -150 106 -256t257 -106q149 0 255.5 106.5t106.5 255.5q0 150 -106.5 256.5t-255.5 106.5q-151 0 -257 -106t-106 -257z" />
<glyph unicode=":" horiz-adv-x="206" d="M33 369q0 25 17 42t42 17q24 0 41 -17t17 -42q0 -23 -17.5 -40.5t-40.5 -17.5q-24 0 -41.5 17.5t-17.5 40.5zM33 862q0 24 17.5 41t41.5 17q23 0 40.5 -17.5t17.5 -40.5q0 -24 -17 -41.5t-41 -17.5q-25 0 -42 17t-17 42z" />
<glyph unicode=";" horiz-adv-x="239" d="M16 238l17 196h100l-35 -196h-82zM33 868q0 24 17.5 41t41.5 17q23 0 40.5 -17.5t17.5 -40.5q0 -24 -17 -41.5t-41 -17.5q-25 0 -42 17t-17 42z" />
<glyph unicode="=" horiz-adv-x="768" d="M4 367v168h678v-168h-678zM4 580v168h678v-168h-678z" />
<glyph unicode="?" horiz-adv-x="872" d="M0 1208q7 11 15.5 22.5t39 44t62 57t81 47.5t99.5 28q253 24 385 -119q64 -69 85 -157t7 -162q-6 -36 -79 -173.5t-85 -185.5q-6 -25 -16.5 -110.5t-17.5 -158.5l-7 -73h-149q-16 285 0 342q22 78 103 214.5t87 174.5q7 41 -5.5 91t-45.5 86q-77 80 -246 65 q-54 -5 -102 -46.5t-70 -78.5zM420 86q0 35 25.5 60.5t60.5 25.5q36 0 61 -25t25 -61t-25 -61t-61 -25q-35 0 -60.5 25.5t-25.5 60.5z" />
<glyph unicode="@" horiz-adv-x="772" d="M4 580v168h137l-82 79l117 119l82 -80v127h168v-143l106 106l119 -116l-90 -92h121v-168h-129l109 -107l-117 -121l-119 117v-154h-168v121l-80 -82l-121 117l107 109h-160z" />
<glyph unicode="A" horiz-adv-x="942" d="M0 0l295 1411h248l303 -1411h-178l-250 1186l-250 -1186h-168zM301 465l121 248l110 -248l-112 -197z" />
<glyph unicode="B" horiz-adv-x="923" d="M0 2v1409h240q192 0 328.5 -136.5t136.5 -328.5q0 -48 -9 -92q94 -64 149.5 -166.5t55.5 -220.5q0 -192 -137 -328.5t-330 -136.5l-69 -1q-69 -1 -128 -1t-69 2h-168zM168 172q8 -2 48 -3q27 -1 55 -1h28q42 0 87 1t48 1q124 0 211.5 87t87.5 210q0 133 -102 225 q-65 -98 -168 -155.5t-223 -57.5q-38 0 -72 6v-313zM168 655q31 -8 72 -8q123 0 210 87.5t87 211.5q0 123 -87 210t-210 87q-41 0 -72 -8v-580z" />
<glyph unicode="C" horiz-adv-x="1292" d="M59 705q0 144 52.5 275t140.5 225t210 150t255 56q154 0 287.5 -71.5t226.5 -196.5l-135 -119q-66 97 -165.5 153t-213.5 56q-130 0 -240 -71t-173.5 -192.5t-63.5 -264.5q0 -142 63.5 -263.5t173.5 -192.5t240 -71q114 0 213.5 56t165.5 153l135 -121 q-93 -125 -227 -196.5t-287 -71.5q-178 0 -329.5 95t-240 258t-88.5 354zM584 682l114 -190l109 190l-109 238z" />
<glyph unicode="D" horiz-adv-x="946" d="M0 0v1409h168q111 0 215 -35.5t187.5 -100.5t147 -151.5t98 -193.5t34.5 -221q0 -191 -91 -354t-248 -258t-341 -95h-2h-168zM168 180h2q134 0 247.5 70.5t180 192t66.5 264.5q0 142 -66.5 263t-180 191t-247.5 70h-2v-1051z" />
<glyph unicode="E" horiz-adv-x="720" d="M0 0v1243v168h168h444v-168h-444v-645h463v-168h-463v-262h463v-168h-631z" />
<glyph unicode="F" horiz-adv-x="712" d="M49 0v1411h168h393v-168h-393v-495h82l-45 -93l45 -75h-82v-580h-168zM328 655l45 93l76 153l69 -153l43 -93l-43 -75l-69 -123l-74 123z" />
<glyph unicode="G" horiz-adv-x="1388" d="M0 707q0 143 52 274t140 225.5t210 150.5t255 56q154 0 287.5 -71.5t226.5 -196.5l-135 -121q-66 97 -165 153t-214 56q-130 0 -240 -70.5t-173.5 -191.5t-63.5 -264t63.5 -264.5t173.5 -192t240 -70.5q108 0 204 50.5t163 138.5q58 98 61 213h-251v161h428 q13 -71 13 -139q0 -86 -21 -168q-38 -146 -152 -250q-90 -88 -204.5 -137t-240.5 -49q-178 0 -329.5 95t-239.5 258t-88 354z" />
<glyph unicode="H" horiz-adv-x="929" d="M49 0v1411h168v-663h82l-45 -93l45 -75h-82v-580h-168zM328 655l45 93l76 153l69 -153l43 -93l-43 -75l-69 -123l-74 123zM594 580l41 75l-41 93h74v663h168v-1411h-168v580h-74z" />
<glyph unicode="I" horiz-adv-x="321" d="M-2 680l149 278l142 -278l-142 -225zM57 0v504l90 -137l97 153v-520h-187zM57 897v348v168h187v-168v-368l-94 190z" />
<glyph unicode="J" horiz-adv-x="1015" d="M2 518h164q0 -132 57 -229q77 -129 248 -129q130 0 195 71q86 91 86 283v2v2v893h163v-891v-16q0 -18 -1 -41q-2 -35 -11 -96.5t-39.5 -128.5t-77.5 -117q-116 -125 -315 -125q-79 0 -145.5 19t-112.5 51.5t-77 66.5t-54 74q-80 134 -80 311z" />
<glyph unicode="K" horiz-adv-x="868" d="M0 0v1413h168v-569l410 569l133 -110l-416 -574l422 -645l-150 -84l-399 610v-610h-168z" />
<glyph unicode="L" horiz-adv-x="727" d="M2 0v1411h168v-1243h463v-168h-631z" />
<glyph unicode="M" horiz-adv-x="1259" d="M0 0v1411h168l405 -1100l408 1100h168v-924l-10 21l-70 141l-76 -141l-12 -25v453l-344 -936h-129l-340 924v-924h-168zM948 342l45 92l76 154l70 -154l43 -92l-43 -76l-70 -123l-76 123zM981 0v231l12 -22l76 -123l70 123l10 18v-227h-168z" />
<glyph unicode="N" horiz-adv-x="937" d="M0 0v1411h168l526 -1046v1046h168l2 -1411h-170l-526 1049l2 -1049h-170z" />
<glyph unicode="O" horiz-adv-x="1396" d="M0 705q0 143 52 273.5t139.5 225t209 150t254.5 55.5q177 0 327.5 -94t238.5 -256.5t88 -353.5t-88 -353.5t-238.5 -257t-327.5 -94.5q-178 0 -329 94.5t-238.5 257t-87.5 353.5zM180 705q0 -142 63.5 -263t173 -191.5t238.5 -70.5t238.5 70.5t173 191.5t63.5 263 q0 106 -37.5 203.5t-101.5 167.5t-151.5 111.5t-184.5 41.5t-184.5 -41.5t-151.5 -111.5t-101.5 -167.5t-37.5 -203.5zM504 711l158 323l147 -323l-147 -260z" />
<glyph unicode="P" horiz-adv-x="800" d="M0 0v1411h240q193 0 330 -136.5t137 -328.5q0 -127 -62.5 -234.5t-170 -170t-234.5 -62.5q-38 0 -72 6v-485h-168zM168 655q31 -8 72 -8q58 0 108 21l-180 274v-287zM176 1237l307 -465q56 78 56 174q0 123 -88 210t-211 87q-34 0 -64 -6z" />
<glyph unicode="Q" horiz-adv-x="1433" d="M0 705q0 143 52 273.5t139.5 225t209 150t254.5 55.5q177 0 327.5 -94t238.5 -256.5t88 -353.5q0 -232 -126 -416t-325 -254l129 -197l-172 -55l-143 217h-17q-178 0 -329 94.5t-238.5 257t-87.5 353.5zM180 705q0 -184 103.5 -327t261.5 -185l-125 192l164 66l170 -261 q163 39 269.5 183t106.5 332q0 106 -37.5 203.5t-101.5 167.5t-151.5 111.5t-184.5 41.5t-184.5 -41.5t-151.5 -111.5t-101.5 -167.5t-37.5 -203.5zM504 711l158 323l147 -323l-147 -260z" />
<glyph unicode="R" horiz-adv-x="962" d="M0 2v1411h240q192 0 328.5 -137t136.5 -330q0 -115 -52 -214t-141 -163l322 -485l-150 -84l-326 496q-59 -15 -118 -15q-26 0 -72 4v-483h-168zM168 657q31 -8 72 -8q123 0 210 87t87 210t-87 211t-210 88q-26 0 -72 -8v-580z" />
<glyph unicode="S" horiz-adv-x="849" d="M-10 1053q1 45 17.5 93t49 94t76.5 82t106.5 58.5t133.5 22.5q72 0 137 -23.5t105 -53t74 -66.5t45 -54.5t16 -27.5l-150 -78q-3 5 -10 16t-27.5 33.5t-44.5 41t-63 32.5t-82 14q-56 0 -100 -22t-67 -54q-24 -33 -36 -61q-13 -31 -12 -51q0 -74 74 -140q76 -67 219 -118 q85 -30 147 -64t100 -68t60.5 -75t30.5 -80t8 -88q0 -3 1 -10.5t1 -10.5v-18q-1 -31 -3 -55q-4 -30 -18 -70t-41 -76.5t-76 -83.5t-120 -100l-101 135q47 35 81 63.5t54.5 53.5t32.5 41.5t16.5 38t5.5 32.5t1 35v25q0 25 -1.5 39t-14 39.5t-36 44.5t-70.5 44.5t-116 49.5 q-97 35 -171 78.5t-117 85.5t-70 89q-27 46 -37 86q-9 36 -8 73v8z" />
<glyph unicode="T" horiz-adv-x="864" d="M25 1243v168h819v-168h-316v-371l-96 193l-92 -172v350h-315zM281 674l151 282l139 -282l-139 -225zM340 -8v506l92 -138l96 154v-522h-188z" />
<glyph unicode="U" horiz-adv-x="1087" d="M39 518l2 893h164l-2 -897q7 -138 57 -225q77 -129 248 -129q129 0 194 71q86 91 86 283v2v2v893h164v-891v-16q0 -18 -1 -41q-2 -35 -11 -96.5t-39.5 -128.5t-77.5 -117q-116 -125 -315 -125q-79 0 -145.5 19t-112.5 51.5t-77 66.5t-54 74q-80 134 -80 311zM389 750 l115 239l108 -239l-108 -191z" />
<glyph unicode="V" horiz-adv-x="1216" d="M0 1411h172l391 -1173l389 1173h176l-473 -1411h-14h-158h-14z" />
<glyph unicode="W" horiz-adv-x="1705" d="M0 1411h172l391 -1173l158 479l-232 694h175l143 -434l145 434h176l-233 -696l158 -477l389 1173h176l-471 -1411h-14h-158h-14l-152 455l-154 -455h-14h-158h-14z" />
<glyph unicode="X" horiz-adv-x="1073" d="M0 0l395 707l-395 704h188l301 -537l299 537h189l-395 -704l395 -707h-189l-301 537l-299 -537h-188z" />
<glyph unicode="Y" horiz-adv-x="1058" d="M41 1346l147 65l301 -537l299 537l152 -65l-369 -658v-688h-168v690zM379 1255l115 238l108 -238l-108 -190z" />
<glyph unicode="Z" horiz-adv-x="1056" d="M0 0l682 1247h-682v164h766h33h151l-2 -2h2l-94 -182l-571 -1061h665v-166h-950z" />
<glyph unicode="a" horiz-adv-x="942" d="M0 0l295 1411h248l303 -1411h-178l-250 1186l-250 -1186h-168zM301 465l121 248l110 -248l-112 -197z" />
<glyph unicode="b" horiz-adv-x="935" d="M0 2v1409h240q192 0 328.5 -136.5t136.5 -328.5q0 -48 -9 -92q94 -64 149.5 -166.5t55.5 -220.5q0 -192 -137 -328.5t-330 -136.5l-69 -1q-69 -1 -128 -1t-69 2h-168zM168 172q8 -2 48 -3q27 -1 55 -1h28q42 0 87 1t48 1q124 0 211.5 87t87.5 210q0 133 -102 225 q-65 -98 -168 -155.5t-223 -57.5q-38 0 -72 6v-313zM168 655q31 -8 72 -8q123 0 210 87.5t87 211.5q0 123 -87 210t-210 87q-41 0 -72 -8v-580z" />
<glyph unicode="c" horiz-adv-x="1224" d="M27 707q0 144 52 275t140 225t210 150t255 56q154 0 287.5 -71.5t226.5 -196.5l-135 -119q-66 97 -165.5 153t-213.5 56q-130 0 -240 -71t-173.5 -192.5t-63.5 -264.5q0 -142 63.5 -263.5t173.5 -192.5t240 -71q114 0 213.5 56t165.5 153l135 -121q-93 -125 -227 -196.5 t-287 -71.5q-178 0 -329.5 95t-239.5 258t-88 354z" />
<glyph unicode="d" horiz-adv-x="980" d="M35 0v1409h168q111 0 215 -35.5t187.5 -100.5t147 -151.5t98 -193.5t34.5 -221q0 -191 -91 -354t-248 -258t-341 -95h-2h-168zM203 180h2q134 0 247.5 70.5t179.5 192t66 264.5q0 106 -39 203t-105 167.5t-157.5 112t-191.5 41.5h-2v-1051z" />
<glyph unicode="e" horiz-adv-x="720" d="M0 0v1243v168h168h444v-168h-444v-645h463v-168h-463v-262h463v-168h-631z" />
<glyph unicode="f" horiz-adv-x="598" d="M0 0v1411h561v-168h-393v-495h278v-168h-278v-580h-168z" />
<glyph unicode="g" horiz-adv-x="1388" d="M0 707q0 143 52 274t140 225.5t210 150.5t255 56q154 0 287.5 -71.5t226.5 -196.5l-135 -121q-66 97 -165 153t-214 56q-130 0 -240 -70.5t-173.5 -191.5t-63.5 -264t63.5 -264.5t173.5 -192t240 -70.5q108 0 204 50.5t163 138.5q58 98 61 213h-251v161h428 q13 -71 13 -139q0 -86 -21 -168q-38 -146 -152 -250q-90 -88 -204.5 -137t-240.5 -49q-178 0 -329.5 95t-239.5 258t-88 354z" />
<glyph unicode="h" horiz-adv-x="845" d="M0 0v1411h168v-663h450v663h168v-1411h-168v580h-450v-580h-168z" />
<glyph unicode="i" horiz-adv-x="311" d="M57 0v1411l187 2v-1413h-187z" />
<glyph unicode="j" horiz-adv-x="1015" d="M2 518h164q0 -132 57 -229q77 -129 248 -129q130 0 195 71q86 91 86 283v2v2v893h163v-891v-16q0 -18 -1 -41q-2 -35 -11 -96.5t-39.5 -128.5t-77.5 -117q-116 -125 -315 -125q-79 0 -145.5 19t-112.5 51.5t-77 66.5t-54 74q-80 134 -80 311z" />
<glyph unicode="k" horiz-adv-x="868" d="M0 0v1413h168v-569l410 569l133 -110l-416 -574l422 -645l-150 -84l-399 610v-610h-168z" />
<glyph unicode="l" horiz-adv-x="727" d="M2 0v1411h168v-1243h463v-168h-631z" />
<glyph unicode="m" horiz-adv-x="1247" d="M0 0v1411h168l407 -381l402 381h168v-924l-10 21l-70 141l-76 -141l-12 -25v357l-402 -377l-407 381v-844h-168zM168 1067l407 -379l402 375v119l-402 -377l-407 381v-119zM944 340l45 94l76 154l70 -154l43 -94l-43 -74l-70 -123l-76 123zM977 0v231l12 -22l76 -123 l70 123l10 18v-227h-168z" />
<glyph unicode="n" horiz-adv-x="937" d="M0 0v1411h168l526 -1046v1046h168l2 -1411h-170l-526 1049l2 -1049h-170z" />
<glyph unicode="o" horiz-adv-x="1366" d="M0 705q0 143 52 273.5t139.5 225t209 150t254.5 55.5q177 0 327.5 -94t238.5 -256.5t88 -353.5t-88 -353.5t-238.5 -257t-327.5 -94.5q-178 0 -329 94.5t-238.5 257t-87.5 353.5zM180 705q0 -142 63.5 -263t173 -191.5t238.5 -70.5t238.5 70.5t173 191.5t63.5 263 q0 106 -37.5 203.5t-101.5 167.5t-151.5 111.5t-184.5 41.5t-184.5 -41.5t-151.5 -111.5t-101.5 -167.5t-37.5 -203.5z" />
<glyph unicode="p" horiz-adv-x="772" d="M0 0v1411h240q192 0 329.5 -137t137.5 -330q0 -126 -63 -233t-170.5 -169.5t-233.5 -62.5q-26 0 -72 4v-483h-168zM168 655q38 -10 72 -10q123 0 211 88t88 211q0 124 -88 211.5t-211 87.5q-41 0 -72 -8v-580z" />
<glyph unicode="q" horiz-adv-x="1370" d="M0 707q0 143 52 273.5t139.5 225t209 150t254.5 55.5q177 0 327.5 -94t238.5 -256.5t88 -353.5q0 -232 -126 -416t-325 -254l129 -197l-172 -55l-143 217h-17q-178 0 -329 94.5t-238.5 257t-87.5 353.5zM180 707q0 -184 103.5 -327t261.5 -185l-125 192l164 66l170 -260 q163 39 269.5 183t106.5 331q0 106 -37.5 203.5t-101.5 167.5t-151.5 111.5t-184.5 41.5t-184.5 -41.5t-151.5 -111.5t-101.5 -167.5t-37.5 -203.5z" />
<glyph unicode="r" horiz-adv-x="876" d="M0 2v1411h240q192 0 328.5 -137t136.5 -330q0 -115 -52 -214t-141 -163l322 -485l-150 -84l-326 496q-59 -15 -118 -15q-26 0 -72 4v-483h-168zM168 657q31 -8 72 -8q123 0 210 87t87 210t-87 211t-210 88q-26 0 -72 -8v-580z" />
<glyph unicode="s" horiz-adv-x="849" d="M-10 1053q1 45 17.5 93t49 94t76.5 82t106.5 58.5t133.5 22.5q72 0 137 -23.5t105 -53t74 -66.5t45 -54.5t16 -27.5l-150 -78q-3 5 -10 16t-27.5 33.5t-44.5 41t-63 32.5t-82 14q-56 0 -100 -22t-67 -54q-24 -33 -36 -61q-13 -31 -12 -51q0 -74 74 -140q76 -67 219 -118 q85 -30 147 -64t100 -68t60.5 -75t30.5 -80t8 -88q0 -3 1 -10.5t1 -10.5v-18q-1 -31 -3 -55q-4 -30 -18 -70t-41 -76.5t-76 -83.5t-120 -100l-101 135q47 35 81 63.5t54.5 53.5t32.5 41.5t16.5 38t5.5 32.5t1 35v25q0 25 -1.5 39t-14 39.5t-36 44.5t-70.5 44.5t-116 49.5 q-97 35 -171 78.5t-117 85.5t-70 89q-27 46 -37 86q-9 36 -8 73v8z" />
<glyph unicode="t" horiz-adv-x="903" d="M0 1251v168h819v-168h-315v-1251h-189v1251h-315z" />
<glyph unicode="u" horiz-adv-x="970" d="M0 520l2 893h164l-2 -897q7 -138 57 -225q77 -129 248 -129q130 0 195 71q86 91 86 283v2v2v893h163v-891v-16q0 -18 -1 -41q-2 -35 -11 -96.5t-39.5 -128.5t-77.5 -117q-116 -125 -315 -125q-79 0 -145.5 19t-112.5 51.5t-77 66.5t-54 74q-80 134 -80 311z" />
<glyph unicode="v" horiz-adv-x="1216" d="M0 1411h172l391 -1173l389 1173h176l-473 -1411h-14h-158h-14z" />
<glyph unicode="w" horiz-adv-x="1705" d="M0 1411h172l391 -1173l158 479l-232 694h175l143 -434l145 434h176l-233 -696l158 -477l389 1173h176l-471 -1411h-14h-158h-14l-152 455l-154 -455h-14h-158h-14z" />
<glyph unicode="x" horiz-adv-x="1073" d="M0 0l395 707l-395 704h188l301 -537l299 537h189l-395 -704l395 -707h-189l-301 537l-299 -537h-188z" />
<glyph unicode="y" horiz-adv-x="1048" d="M0 1411h188l301 -537l299 537h189l-406 -723v-688h-168v690z" />
<glyph unicode="z" horiz-adv-x="1056" d="M0 0l682 1247h-682v164h766h33h151l-2 -2h2l-94 -182l-571 -1061h665v-166h-950z" />
<glyph unicode="&#xad;" d="M4 580v168h678v-168h-678z" />
<glyph unicode="&#x2000;" horiz-adv-x="943" />
<glyph unicode="&#x2001;" horiz-adv-x="1886" />
<glyph unicode="&#x2002;" horiz-adv-x="943" />
<glyph unicode="&#x2003;" horiz-adv-x="1886" />
<glyph unicode="&#x2004;" horiz-adv-x="628" />
<glyph unicode="&#x2005;" horiz-adv-x="471" />
<glyph unicode="&#x2006;" horiz-adv-x="314" />
<glyph unicode="&#x2007;" horiz-adv-x="314" />
<glyph unicode="&#x2008;" horiz-adv-x="235" />
<glyph unicode="&#x2009;" horiz-adv-x="377" />
<glyph unicode="&#x200a;" horiz-adv-x="104" />
<glyph unicode="&#x2010;" d="M4 580v168h678v-168h-678z" />
<glyph unicode="&#x2011;" d="M4 580v168h678v-168h-678z" />
<glyph unicode="&#x2012;" d="M4 580v168h678v-168h-678z" />
<glyph unicode="&#x2013;" horiz-adv-x="1081" d="M4 580v168h1024v-168h-1024z" />
<glyph unicode="&#x2014;" horiz-adv-x="2105" d="M4 580v168h2048v-168h-2048z" />
<glyph unicode="&#x202f;" horiz-adv-x="377" />
<glyph unicode="&#x205f;" horiz-adv-x="471" />
<glyph unicode="&#x20ac;" horiz-adv-x="849" d="M-27 1026v25q2 52 23.5 107t60.5 105t101.5 87t136.5 47v86h168v-94q51 -14 97.5 -40.5t75 -52.5t53 -56t32.5 -43.5t12 -20.5l-149 -78q-4 8 -14 22.5t-40.5 43.5t-66.5 46v-432q215 -80 280 -198q48 -73 39 -222q0 -8 -4 -32v-2v-5l-2 -6q-23 -105 -104.5 -192 t-208.5 -107v-120h-170l2 129q-174 45 -271 208l-1 2l149 78l3 -5q3 -4 8 -11t12.5 -16.5t17.5 -20t22 -20.5t27.5 -20.5t32.5 -18.5v133v299q-310 122 -322 395zM141 1038q6 -101 154 -186v377q-53 -14 -90 -51q-9 -9 -21 -25q-34 -45 -41 -90q-2 -8 -2 -25zM463 182 q134 31 151 178q0 9 2 13q-2 4 -2 16v25q0 20 -0.5 30.5t-6 29t-16 32.5t-31 32t-50.5 35q-33 9 -47 11v-252v-150z" />
<glyph unicode="&#x25fc;" horiz-adv-x="1413" d="M0 0v1413h1413v-1413h-1413z" />
</font>
</defs>
</svg>
